<?xml version="1.0" standalone="no"?>
<!DOCTYPE svg PUBLIC "-//W3C//DTD SVG 20010904//EN"
 "http://www.w3.org/TR/2001/REC-SVG-20010904/DTD/svg10.dtd">
<svg version="1.0" xmlns="http://www.w3.org/2000/svg"
 width="272.000000pt" height="272.000000pt" viewBox="0 0 272.000000 272.000000"
 preserveAspectRatio="xMidYMid meet">
<metadata>
Created by potrace 1.16, written by Peter Selinger 2001-2019
</metadata>
<g transform="translate(0.000000,272.000000) scale(0.100000,-0.100000)"
fill="#000000" stroke="none">
<path d="M3 2714 c3 -4 108 -6 234 -6 142 1 222 -3 213 -8 -9 -6 -10 -10 -3
-10 6 0 14 4 18 9 8 13 156 12 172 -1 7 -6 13 -6 13 -1 0 5 14 9 30 9 17 0 30
-4 30 -10 0 -7 3 -8 8 -1 11 16 52 14 52 -2 0 -8 -8 -13 -17 -11 -10 1 -24 -1
-32 -6 -8 -5 -16 -3 -22 5 -7 11 -9 9 -9 -6 0 -16 6 -21 24 -21 15 0 22 4 18
11 -3 5 2 4 11 -4 12 -9 17 -10 17 -2 0 8 4 8 14 -1 9 -8 11 -17 5 -23 -12
-12 -11 -25 2 -25 5 0 8 4 4 9 -10 17 12 21 25 6 7 -8 18 -15 24 -15 6 0 3 5
-7 11 -18 10 -18 12 3 31 12 11 19 22 16 25 -3 3 -12 -2 -21 -11 -21 -21 -26
-20 -18 2 6 14 4 15 -8 5 -12 -10 -15 -8 -15 11 0 12 6 23 13 23 6 0 10 -4 7
-9 -3 -4 0 -8 5 -8 6 0 11 4 11 8 0 5 14 8 30 8 17 0 30 -4 30 -10 0 -7 3 -8
8 -1 11 16 52 14 52 -2 0 -8 -8 -13 -17 -11 -10 1 -24 -1 -32 -6 -8 -5 -16 -3
-22 5 -7 11 -9 9 -9 -6 0 -16 6 -21 24 -21 15 0 22 4 18 11 -3 5 2 4 11 -4 14
-11 17 -11 17 0 0 11 2 11 10 -1 6 -9 10 -11 10 -3 0 7 7 10 15 7 8 -4 15 -1
15 5 0 6 -5 10 -11 8 -6 -1 -13 5 -14 14 -2 9 3 16 11 16 7 0 11 -4 8 -9 -3
-4 0 -8 5 -8 6 0 11 4 11 9 0 12 53 9 62 -4 5 -7 8 -6 8 1 0 6 20 10 48 10 26
-1 74 2 107 5 33 3 -228 6 -579 7 -352 1 -637 -1 -633 -4z"/>
<path d="M1461 2715 c3 -2 38 -5 79 -6 42 -1 78 -7 82 -13 6 -8 8 -7 8 2 0 8
19 12 59 12 38 0 61 -4 64 -12 4 -10 6 -10 6 0 1 6 7 12 15 12 8 0 17 -6 19
-12 4 -10 6 -10 6 0 1 8 20 12 60 12 38 0 61 -4 64 -12 4 -10 6 -10 6 0 1 6 7
12 15 12 8 0 17 -6 19 -12 4 -10 6 -10 6 0 1 8 20 12 60 12 38 0 61 -4 64 -12
4 -10 6 -10 6 0 1 6 7 12 15 12 8 0 17 -6 19 -12 4 -10 6 -10 6 0 1 8 20 12
60 12 38 0 61 -4 64 -12 4 -10 6 -10 6 0 1 6 7 12 15 12 8 0 17 -6 19 -12 4
-10 6 -10 6 0 1 8 20 12 60 12 38 0 61 -4 64 -12 4 -10 6 -10 6 0 1 6 8 12 16
12 8 0 15 -6 15 -12 0 -10 2 -10 8 0 11 16 154 15 165 -2 5 -8 10 -7 16 3 7
11 9 11 14 0 4 -10 8 -11 14 -3 4 6 15 14 23 17 8 3 -270 6 -619 6 -349 1
-632 -1 -630 -4z"/>
<path d="M2066 2683 c-12 -12 -5 -23 14 -23 11 0 20 -7 20 -15 0 -9 -6 -12
-16 -8 -10 4 -17 -2 -21 -16 -4 -15 -13 -22 -27 -20 -54 4 -75 -1 -70 -16 5
-11 11 -12 24 -5 15 8 19 6 22 -12 2 -12 9 -23 17 -26 8 -3 11 0 7 6 -3 6 -3
12 1 15 5 2 2 2 -4 1 -7 -2 -13 3 -13 10 0 21 37 7 43 -16 3 -11 10 -17 16
-13 6 3 14 -1 17 -9 3 -9 10 -16 15 -16 4 0 6 7 3 15 -4 10 0 15 16 15 11 0
19 4 15 9 -3 6 4 15 15 21 17 9 20 8 20 -12 0 -19 -2 -20 -10 -8 -5 8 -10 11
-10 5 0 -5 5 -17 10 -25 6 -9 10 -11 10 -3 0 7 7 10 17 6 10 -4 14 -2 10 4 -4
6 -4 13 0 16 5 2 2 2 -4 1 -7 -2 -13 3 -13 10 0 21 37 7 43 -16 3 -11 10 -17
16 -13 6 3 14 -1 17 -9 3 -9 10 -16 15 -16 4 0 6 7 3 15 -4 10 0 15 16 15 11
0 19 4 15 9 -3 6 4 15 15 21 17 9 20 8 20 -12 0 -19 -2 -20 -10 -8 -5 8 -10
11 -10 5 0 -5 5 -17 10 -25 6 -9 10 -11 10 -3 0 7 7 10 17 6 10 -4 14 -2 10 4
-4 6 -4 13 0 16 5 2 2 2 -4 1 -7 -2 -13 3 -13 10 0 21 37 7 43 -16 3 -11 10
-17 16 -13 6 3 14 -1 17 -9 3 -9 10 -16 15 -16 4 0 6 7 3 15 -4 10 0 15 16 15
11 0 19 4 15 9 -3 6 4 15 15 21 17 9 20 8 20 -12 0 -19 -2 -20 -10 -8 -5 8
-10 11 -10 5 0 -5 5 -17 10 -25 6 -9 10 -11 10 -3 0 7 7 10 17 6 10 -4 14 -2
10 4 -4 6 -4 13 0 16 5 2 2 2 -4 1 -7 -2 -13 2 -13 9 0 21 57 16 67 -6 11 -24
60 -30 68 -9 4 10 0 13 -15 9 -19 -5 -61 22 -61 40 -1 13 -9 17 -9 4 0 -7 -11
-12 -27 -11 -61 4 -81 0 -79 -16 1 -19 -31 -28 -41 -11 -4 7 -9 3 -13 -9 -5
-12 -7 -4 -7 24 0 43 0 43 19 22 23 -25 32 -26 19 -3 -5 10 -6 24 -1 33 5 9 6
21 2 27 -10 16 -44 20 -49 6 -3 -8 4 -13 16 -13 12 0 21 -6 21 -15 0 -9 -6
-12 -16 -8 -10 4 -17 -2 -21 -16 -4 -15 -13 -22 -27 -20 -53 4 -74 -1 -72 -17
1 -19 -31 -28 -41 -11 -4 7 -9 3 -13 -9 -5 -12 -7 -4 -7 24 0 43 0 43 19 22
23 -25 32 -26 19 -3 -5 10 -6 24 -1 33 5 9 6 21 2 27 -10 16 -44 20 -49 6 -3
-8 4 -13 16 -13 12 0 21 -6 21 -15 0 -9 -6 -12 -16 -8 -10 4 -17 -2 -21 -16
-4 -15 -13 -22 -27 -20 -53 4 -74 -1 -72 -17 1 -19 -31 -28 -41 -11 -4 7 -9 3
-13 -9 -5 -12 -7 -4 -7 24 0 43 0 43 19 22 23 -25 32 -26 19 -3 -5 10 -6 24
-1 33 5 9 6 21 2 26 -9 14 -38 24 -46 17z"/>
<path d="M21 2153 c1 -10 0 -27 -1 -38 l-1 -20 -9 20 c-7 14 -9 1 -7 -42 2
-64 11 -78 43 -66 10 4 12 8 5 12 -8 5 -6 13 5 27 13 16 15 16 10 2 -7 -22 9
-24 17 -3 8 19 -11 31 -26 16 -6 -6 -18 -11 -27 -10 -10 0 -11 2 -2 6 6 2 12
11 12 18 0 15 41 8 52 -9 5 -8 8 -7 8 2 0 6 5 12 11 12 5 0 7 -4 4 -10 -3 -5
4 -10 15 -10 16 0 20 5 16 15 -6 16 9 21 18 6 10 -15 44 0 61 26 13 19 14 28
5 37 -8 8 -10 7 -5 -6 4 -11 2 -18 -4 -18 -6 0 -11 5 -11 12 0 6 -7 3 -16 -8
-8 -10 -13 -13 -9 -6 10 19 -13 14 -25 -5 -8 -13 -10 -14 -7 -3 7 22 -32 23
-58 2 -19 -16 -19 -16 -6 1 14 18 9 22 -31 18 -12 -2 -18 5 -18 18 0 12 -5 21
-11 21 -5 0 -9 -8 -8 -17z"/>
<path d="M123 635 c-7 -8 -13 -23 -13 -35 0 -12 -6 -20 -17 -20 -15 0 -16 2
-3 10 12 8 10 10 -10 10 -20 0 -22 2 -10 10 13 8 12 10 -2 10 -10 0 -18 -4
-18 -10 0 -5 -7 -10 -15 -10 -8 0 -15 5 -15 11 0 5 5 7 12 3 7 -4 8 -3 4 4 -8
14 -36 4 -33 -11 1 -7 9 -15 17 -19 12 -5 12 -7 -2 -7 -11 -1 -18 -9 -18 -22
0 -13 4 -18 13 -13 9 6 9 5 0 -7 -10 -12 -10 -18 0 -29 6 -7 7 -10 2 -7 -7 3
-11 -5 -11 -19 0 -27 13 -32 22 -9 4 8 13 15 22 15 14 0 13 2 -2 13 -11 8 -15
19 -10 30 8 23 27 22 19 -2 -8 -25 21 -49 38 -31 10 10 9 11 -2 5 -9 -5 -12
-4 -7 3 4 7 18 9 32 6 25 -6 27 -2 25 41 0 14 1 16 6 5 3 -8 11 -18 17 -22 8
-5 7 -11 -2 -20 -18 -18 -15 -31 7 -25 11 3 22 -1 24 -8 5 -13 -6 -37 -17 -36
-23 3 -27 -3 -25 -36 2 -21 8 -41 13 -45 6 -4 5 -13 -3 -22 -11 -13 -17 -14
-27 -5 -11 9 -12 15 -2 26 9 11 9 16 -3 24 -8 5 -9 9 -3 9 5 0 10 11 10 25 0
14 -6 25 -12 25 -7 0 -11 -9 -9 -20 2 -11 0 -22 -6 -25 -5 -4 -9 -2 -9 4 0 6
-6 8 -14 5 -8 -3 -17 -1 -21 5 -3 6 -12 11 -18 11 -7 0 -6 -4 3 -10 10 -6 11
-12 5 -18 -6 -6 -17 -3 -28 8 -18 18 -18 19 1 29 16 8 24 7 36 -4 18 -19 22
-19 30 1 3 8 2 12 -3 9 -5 -3 -12 -1 -15 3 -4 7 -32 9 -67 3 -4 -1 -6 -32 -5
-70 0 -38 3 -67 5 -65 2 2 10 -1 18 -7 16 -14 17 -5 2 23 -10 19 -9 20 10 15
18 -4 19 -3 10 15 -10 18 -9 19 11 8 20 -11 21 -13 5 -30 -15 -16 -14 -18 5
-23 11 -3 18 -1 14 4 -3 5 0 9 5 9 6 0 11 12 12 28 0 23 1 24 8 7 5 -11 6 -26
3 -33 -3 -9 9 -12 45 -11 33 1 50 6 50 15 0 9 -5 10 -18 3 -10 -5 -21 -9 -26
-9 -4 1 2 6 14 13 12 7 22 16 21 21 0 16 26 25 39 14 11 -9 11 -13 -1 -22 -12
-9 -11 -14 7 -31 11 -11 16 -14 12 -6 -6 11 -3 13 14 8 17 -4 21 -2 17 9 -3 8
-2 14 2 14 5 0 7 17 5 38 -2 34 -1 35 5 7 5 -21 13 -29 25 -27 25 4 21 -17 -5
-28 -25 -9 -21 -11 30 -16 17 -1 30 2 26 7 -3 5 -1 9 5 9 5 0 13 -4 16 -10 9
-15 25 -12 25 4 0 8 6 17 13 19 6 3 2 6 -10 6 -13 1 -23 6 -23 12 0 5 6 7 13
3 6 -4 3 3 -8 16 -11 12 -33 29 -50 36 -16 7 -23 14 -15 14 9 1 5 5 -8 11 -14
5 -20 13 -16 20 4 8 3 9 -4 5 -9 -5 -9 -13 -2 -27 9 -16 7 -19 -10 -19 -11 0
-20 5 -20 10 0 6 -4 10 -9 10 -5 0 -8 -7 -7 -16 0 -9 -6 -19 -14 -21 -13 -4
-13 -3 -1 5 21 15 -3 42 -30 35 -17 -5 -19 -2 -13 21 6 26 0 31 -36 27 -13 -2
-13 -1 0 8 8 5 17 8 21 5 7 -4 19 30 19 54 0 6 -12 13 -27 13 l-28 1 30 8 c17
4 23 9 15 10 -28 4 -35 6 -52 14 -9 4 -14 14 -11 22 7 18 2 17 -14 -1z"/>
<path d="M378 303 c12 -2 22 -9 22 -14 0 -6 -5 -7 -11 -3 -7 4 -10 1 -7 -7 3
-8 15 -13 26 -11 19 3 22 -2 22 -34 0 -29 3 -34 13 -25 10 8 17 7 26 -2 10 -9
11 -8 6 6 -4 10 -2 17 4 17 6 0 11 -4 11 -10 0 -5 7 -10 15 -10 8 0 15 -5 15
-11 0 -5 -4 -7 -10 -4 -5 3 -10 -1 -10 -9 0 -9 -7 -16 -16 -16 -14 0 -14 -3
-4 -15 7 -9 10 -18 6 -22 -3 -3 -6 -1 -6 5 0 7 -5 12 -11 12 -5 0 -7 -6 -3
-12 6 -10 4 -10 -7 0 -16 15 -29 16 -29 1 0 -5 5 -7 11 -3 8 5 8 1 0 -14 -7
-14 -18 -19 -33 -16 -22 4 -22 4 -3 -5 12 -5 27 -17 35 -27 12 -15 13 -16 1
-9 -11 6 -13 4 -8 -7 3 -9 -1 -24 -8 -35 -14 -17 -14 -17 -15 5 0 17 -6 22
-26 22 -24 0 -24 1 -8 17 11 11 13 18 5 21 -6 2 -8 9 -4 15 10 17 11 47 1 53
-4 3 -9 -2 -9 -10 -4 -41 -15 -56 -44 -56 -13 0 -25 -3 -28 -7 -2 -5 -2 -3 -1
4 4 16 -25 45 -37 38 -5 -4 -9 3 -9 14 0 14 6 21 19 21 13 0 18 7 17 23 -1 13
4 21 12 19 15 -3 -14 46 -38 65 -12 9 -9 10 15 6 17 -3 26 -2 22 3 -10 11 -78
13 -71 2 3 -4 2 -8 -3 -8 -4 0 -7 -20 -5 -45 3 -30 9 -45 18 -45 8 0 14 5 14
11 0 5 -4 8 -8 5 -5 -3 -9 1 -9 9 0 11 5 10 24 -2 23 -15 34 -31 11 -17 -7 4
-8 3 -4 -4 4 -7 -2 -14 -16 -17 -27 -7 -36 -55 -11 -55 13 0 13 -3 3 -15 -11
-13 -10 -14 5 -9 13 5 16 4 11 -4 -4 -7 -14 -12 -22 -12 -8 0 -14 -9 -14 -21
0 -13 4 -18 13 -13 8 5 7 2 -2 -9 -19 -24 -9 -30 30 -18 27 9 29 10 7 7 -15
-2 -25 1 -22 5 3 5 14 9 25 9 10 0 19 7 19 15 0 8 7 15 16 15 8 0 12 5 9 10
-4 6 7 10 27 9 31 -1 32 -1 8 -9 -14 -4 -18 -9 -10 -10 9 -1 7 -5 -7 -10 -13
-5 -23 -18 -23 -28 0 -17 7 -19 58 -17 31 1 68 3 82 4 23 2 24 3 5 11 -18 8
-19 9 -1 9 12 1 16 6 12 16 -3 9 0 15 10 15 8 0 12 5 9 10 -4 6 7 10 27 9 31
-1 32 -1 8 -9 -14 -4 -18 -9 -10 -10 9 -1 7 -5 -7 -10 -13 -5 -23 -18 -23 -29
0 -17 7 -19 85 -18 81 2 85 3 85 25 0 12 -4 22 -9 22 -6 0 -8 10 -5 23 2 12 7
46 10 75 5 47 4 51 -12 45 -11 -4 -15 -3 -10 5 6 11 -11 28 -20 19 -9 -8 8
-37 22 -37 9 0 13 -9 12 -25 -2 -16 -6 -21 -12 -15 -13 13 -26 13 -26 -1 0 -5
5 -7 11 -3 8 5 8 1 0 -14 -7 -14 -18 -19 -33 -16 -22 4 -22 4 -3 -5 12 -5 27
-17 35 -27 12 -15 13 -16 1 -9 -11 6 -13 4 -8 -7 3 -9 -1 -24 -8 -35 -14 -17
-14 -17 -15 5 0 17 -6 22 -26 22 -24 0 -24 1 -8 17 11 11 13 18 5 21 -6 2 -8
9 -4 15 10 17 11 47 1 53 -4 3 -9 -2 -9 -10 -4 -42 -15 -56 -45 -56 -15 0 -24
6 -24 15 0 8 5 15 10 15 6 0 10 -4 10 -10 0 -5 8 -10 18 -9 11 0 12 2 4 6 -10
4 -9 8 4 17 9 7 17 27 18 45 1 27 6 33 29 38 15 3 27 9 27 13 0 4 -17 22 -37
39 -34 29 -38 30 -44 14 -3 -10 -1 -21 5 -25 6 -4 -5 -7 -24 -7 -29 0 -31 2
-15 9 18 8 18 9 2 9 -10 1 -16 4 -14 9 3 4 -1 13 -9 20 -8 7 -14 8 -14 2 0
-16 -27 -12 -34 5 -3 8 -16 14 -28 14 l-23 -2 23 -4z"/>
<path d="M167 270 c-3 -10 0 -21 7 -24 6 -2 3 -5 -6 -5 -10 -1 -18 -5 -18 -11
0 -5 -4 -10 -9 -10 -5 0 -7 9 -4 20 4 14 0 20 -11 20 -9 0 -16 -4 -16 -10 0
-5 -4 -10 -10 -10 -5 0 -9 3 -7 8 2 7 -6 12 -24 12 -5 0 -8 -4 -5 -9 4 -5 0
-12 -6 -15 -9 -3 -7 -9 6 -20 22 -18 41 -21 31 -7 -3 5 -1 13 5 16 6 4 9 1 8
-7 -2 -7 3 -12 10 -11 6 2 12 -2 12 -8 0 -6 -7 -9 -15 -6 -8 4 -16 3 -19 -1
-2 -4 6 -9 20 -10 15 -1 24 3 24 13 0 8 9 15 20 15 11 0 20 -5 20 -11 0 -5 -4
-8 -9 -5 -5 3 -11 -4 -14 -15 -4 -15 -11 -20 -22 -15 -9 3 -13 2 -10 -3 3 -5
1 -12 -5 -16 -5 -3 -10 -21 -10 -38 0 -23 -3 -28 -9 -18 -5 8 -6 21 -3 30 5
14 4 14 -12 2 -11 -9 -16 -24 -13 -38 2 -13 0 -20 -6 -16 -6 3 -7 1 -3 -5 10
-16 39 -15 31 1 -4 6 2 1 13 -13 23 -28 43 -20 24 10 -9 14 -9 20 1 23 9 4 9
7 0 18 -16 16 -17 33 -1 23 8 -5 9 -2 5 9 -3 10 -2 17 3 17 6 0 10 -11 10 -25
0 -17 5 -25 18 -25 14 0 15 2 2 10 -11 7 -11 10 -2 10 7 0 17 10 22 23 9 20 9
19 6 -8 -2 -20 -11 -34 -27 -42 l-24 -13 30 -1 c26 -2 27 -2 6 -6 -19 -4 -21
-7 -10 -14 11 -7 11 -9 -3 -9 -12 0 -18 -8 -18 -24 0 -20 5 -23 30 -22 24 1
30 5 30 23 0 13 -6 23 -12 23 -9 0 -10 3 -2 8 14 9 17 84 4 117 -6 16 -6 25 0
25 11 0 12 47 2 70 -10 22 -29 22 -35 0z"/>
</g>
</svg>
