<?xml version="1.0" standalone="yes"?> 
<svg xmlns="http://www.w3.org/2000/svg" width="272" height="272">
<path style="fill:#fefcf3; stroke:none;" d="M66 251C69.7498 257.608 86.5357 265.551 94 264C97.4633 268.611 104.719 268.871 110 268C110.654 271.844 121.687 270.223 125 270L125 271L122 271L122 272L149 272L149 271L147 271L147 270C214.12 275.075 271.993 202.886 272 140L271 140L271 142L270 142L270 130L271 130L271 133L272 133L271 118L270 118L270 120L269 120C270.601 110.391 267.29 101.87 265 95C263.209 89.6258 262.214 83.6428 259 83L260 80L257 79C257.889 71.2745 249.847 61.8958 245.346 56C232.619 39.3299 216.485 25.5595 198 15.706C191.604 12.2966 183.443 6.89917 176 8C172.879 3.84525 167.703 4.16641 163 5L163 4L165 4C148.427 -5.94354 118.432 0.26181 101 4.62656C25.6332 23.4974 -15.0836 104.663 6.00077 177C12.7987 200.323 26.5621 221.624 45 237.421C50.6445 242.256 58.2167 250.816 66 251z"/>

<path style="fill:#f7dca7; stroke:none;" d="M125 1L125 2L148 2L125 1M117 2L117 3L120 3L117 2M151 2L151 3L155 3L151 2M111 3L111 4L114 4L111 3M158 3L158 4L161 4L158 3M106.667 4.33334L107.333 4.66666L106.667 4.33334M163 4L163 5L166 5L163 4M125 5L125 6L147 6L125 5M98.6667 6.33334L99.3333 6.66666L98.6667 6.33334M115 6L115 7L120 7L115 6z"/>
<path style="fill:#eaba6b; stroke:none;" d="M120 6L120 7L129 7L120 6z"/>
<path style="fill:#fda51e; stroke:none;" d="M40 222C40.0492 217.839 40.17 215.112 44 213L44 106L48 106C48 99.0386 50.4043 93.5282 50.9421 86.9853C51.7436 77.2348 48.0265 64.3044 54 56L54 55C39.1191 27.1156 93.2228 28.5174 77 55L77 56C82.8008 64.8056 77.9763 77.9928 79.1829 87.9606C79.9983 94.6974 83.7913 97.4759 82 105L87 106L87 162C100.729 158.045 119.444 148.712 130.827 140.049C137.758 134.774 133.054 128.084 126 128L127 123L133 124L134 118L140 118C140.381 122.89 142.276 123.845 147 124L147 128C140.889 128.201 136.457 134.917 142.318 139.651C152.203 147.637 172.603 158.609 185 161L185 106L190 106C190 99.4021 191.743 93.3863 191.981 86.9853C192.338 77.4254 189.194 64.0718 195 56L195 55C188.548 38.4978 200.919 31.4095 216 35C202.515 18.3311 174.392 10.3762 154 7.71835C79.4077 -2.00366 6.02996 55.3305 6 133C5.99067 157.191 11.117 181.01 23.6042 202C27.7623 208.99 32.4355 218.398 40 222z"/>
<path style="fill:#eaba6b; stroke:none;" d="M144 6L144 7L151 7L144 6z"/>
<path style="fill:#f7dca7; stroke:none;" d="M151 6L151 7L156 7L151 6M95 7L96 8L95 7M111 7L111 8L114 8L111 7z"/>
<path style="fill:#eaba6b; stroke:none;" d="M114 7L114 8L119 8L114 7M152 7L152 8L158 8L152 7z"/>
<path style="fill:#f7dca7; stroke:none;" d="M158 7L158 8L161 8L158 7M176 7L177 8L176 7M92 8L93 9L92 8M102 9L102 10L108 9L102 9z"/>
<path style="fill:#eaba6b; stroke:none;" d="M108 8L108 9L112 9L108 8M160 8L160 9L163 9L160 8z"/>
<path style="fill:#f7dca7; stroke:none;" d="M163 8L163 9L170 10L163 8z"/>
<path style="fill:#eaba6b; stroke:none;" d="M105 9L105 10L108 10L105 9M164 9L164 10L167 10L164 9z"/>
<path style="fill:#f7dca7; stroke:none;" d="M98.6667 10.3333L99.3333 10.6667L98.6667 10.3333z"/>
<path style="fill:#eaba6b; stroke:none;" d="M100 10L100 11L103 11L100 10M169.667 10.3333L170.333 10.6667L169.667 10.3333z"/>
<path style="fill:#f7dca7; stroke:none;" d="M171 10L171 11L176 12L176 11L171 10M85 11L86 12L85 11M96 11L97 12L96 11z"/>
<path style="fill:#eaba6b; stroke:none;" d="M97 11L97 12L100 12L97 11M172.667 11.3333L173.333 11.6667L172.667 11.3333z"/>
<path style="fill:#f7dca7; stroke:none;" d="M92.6667 12.3333L93.3333 12.6667L92.6667 12.3333z"/>
<path style="fill:#eaba6b; stroke:none;" d="M94.6667 12.3333L95.3333 12.6667L94.6667 12.3333M176 12L176 13L180 14L180 13L176 12z"/>
<path style="fill:#f7dca7; stroke:none;" d="M178.667 12.3333L179.333 12.6667L178.667 12.3333M90 13L91 14L90 13z"/>
<path style="fill:#eaba6b; stroke:none;" d="M91 13L91 14L94 14L91 13z"/>
<path style="fill:#f7dca7; stroke:none;" d="M180.667 13.3333L181.333 13.6667L180.667 13.3333M87.6667 14.3333L88.3333 14.6667L87.6667 14.3333z"/>
<path style="fill:#eaba6b; stroke:none;" d="M89 14L90 15L89 14M181.667 14.3333L182.333 14.6667L181.667 14.3333z"/>
<path style="fill:#f7dca7; stroke:none;" d="M183.667 14.3333L184.333 14.6667L183.667 14.3333M85 15L86 16L85 15z"/>
<path style="fill:#eaba6b; stroke:none;" d="M86.6667 15.3333L87.3333 15.6667L86.6667 15.3333M184.667 15.3333L185.333 15.6667L184.667 15.3333z"/>
<path style="fill:#f7dca7; stroke:none;" d="M186 15L187 16L186 15M80 17L80 18L84 17L80 17z"/>
<path style="fill:#eaba6b; stroke:none;" d="M84 16L85 17L84 16M187 16L190 18L190 17L187 16z"/>
<path style="fill:#f7dca7; stroke:none;" d="M188 16L189 17L188 16z"/>
<path style="fill:#eaba6b; stroke:none;" d="M82 17L83 18L82 17z"/>
<path style="fill:#f7dca7; stroke:none;" d="M190 17L191 18L190 17M70 18L71 19L70 18M78 18L79 19L78 18z"/>
<path style="fill:#eaba6b; stroke:none;" d="M79.6667 18.3333L80.3333 18.6667L79.6667 18.3333M134 18L134 19L139 19L134 18M191 18L192 19L191 18z"/>
<path style="fill:#f7dca7; stroke:none;" d="M192 18L192 19L199 22L199 21L192 18M76 19L77 20L76 19z"/>
<path style="fill:#eaba6b; stroke:none;" d="M77.6667 19.3333L78.3333 19.6667L77.6667 19.3333M132 19L133 20L132 19z"/>
<path style="fill:#f7dca7; stroke:none;" d="M132 20L132 21L141 21L132 20z"/>
<path style="fill:#eaba6b; stroke:none;" d="M140 19L141 20L140 19M193 19L194 20L193 19z"/>
<path style="fill:#f7dca7; stroke:none;" d="M74 20L73 22L74 20z"/>
<path style="fill:#eaba6b; stroke:none;" d="M75.6667 20.3333L76.3333 20.6667L75.6667 20.3333z"/>
<path style="fill:#fefcf3; stroke:none;" d="M134 20C137.114 27.3632 132.865 35.0056 125 29L124 29L124 35C130.108 33.5464 142.187 38.0428 133 44L133 45L139 45L138 34L149 35L149 30L139 32L138 20L134 20z"/>
<path style="fill:#eaba6b; stroke:none;" d="M195 20L196 21L195 20M74 21L75 22L74 21M132 21L132 22L134 25L130 22L133 25L133 26L133 27L126 28L125 28C127.332 31.5976 131.013 30.9969 135 31L135 21L132 21M138 21L138 31C141.987 30.9969 145.668 31.5975 148 28L147 28L139 30L141 22L138 21M197 21L198 22L197 21z"/>
<path style="fill:#f7dca7; stroke:none;" d="M71 22L72 23L71 22z"/>
<path style="fill:#eaba6b; stroke:none;" d="M72 22L73 23L72 22z"/>
<path style="fill:#f7dca7; stroke:none;" d="M135 22L135 30L136 30L135 22z"/>
<path style="fill:#eaba6b; stroke:none;" d="M142 22L140 25L142 22M199 22L199 23L203 25L203 24L199 22z"/>
<path style="fill:#f7dca7; stroke:none;" d="M200 22L201 23L200 22M69 23L70 24L69 23z"/>
<path style="fill:#eaba6b; stroke:none;" d="M70.6667 23.3333L71.3333 23.6667L70.6667 23.3333M128 23L127 25L129 25L128 23z"/>
<path style="fill:#f7dca7; stroke:none;" d="M129 23L127 25L127 26L127 27L131 29L131 23L129 23M142 23L140 27L144 25L142 29L146 27L146 26L146 25L144 23L142 23M202 23L203 24L202 23M67 24L66 26L67 24z"/>
<path style="fill:#eaba6b; stroke:none;" d="M68.6667 24.3333L69.3333 24.6667L68.6667 24.3333z"/>

<path style="fill:#f7dca7; stroke:none;" d="M207 26L208 27L207 26z"/>
<path style="fill:#eaba6b; stroke:none;" d="M64 27L65 28L64 27M128 27L129 28L128 27M140.667 27.3333L141.333 27.6667L140.667 27.3333M144 27L145 28L144 27z"/>
<path style="fill:#f7dca7; stroke:none;" d="M208 27L209 28L208 27M61 28L60 30L61 28z"/>
<path style="fill:#eaba6b; stroke:none;" d="M62 28L63 29L62 28M123.333 28.6667L123.667 29.3333L123.333 28.6667z"/>
<path style="fill:#f7dca7; stroke:none;" d="M124 28L125 29L124 28z"/>
<path style="fill:#fda51e; stroke:none;" d="M132 28L132 30L134 30L134 28L132 28z"/>
<path style="fill:#f7dca7; stroke:none;" d="M148 28L148 37L149 37C149.967 33.7222 150.758 30.4109 148 28z"/>
<path style="fill:#eaba6b; stroke:none;" d="M209 28L216 35L213 34L213 35C219.928 39.0525 220 43.5632 220 51C210.921 42.932 203.247 47.1505 193 49L193 50C204.576 49.6231 208.468 45.6129 220 52L223 40L209 28z"/>
<path style="fill:#f7dca7; stroke:none;" d="M210 28L211 29L210 28M53 29L54 30L53 29z"/>
<path style="fill:#eaba6b; stroke:none;" d="M61 29L62 30L61 29z"/>
<path style="fill:#f7dca7; stroke:none;" d="M211 29L212 30L211 29M58 30L52 36L58 30z"/>
<path style="fill:#eaba6b; stroke:none;" d="M59 30L60 31L59 30z"/>
<path style="fill:#f7dca7; stroke:none;" d="M123 30L123 34L124 34L123 30M125 30L126 31L125 30M147 30L148 31L147 30M212.667 30.3333L213.333 30.6667L212.667 30.3333z"/>
<path style="fill:#eaba6b; stroke:none;" d="M58 31L59 32L58 31z"/>
<path style="fill:#f7dca7; stroke:none;" d="M132 31L133 32L132 31M139 31L140 32L139 31M144.667 31.3333L145.333 31.6667L144.667 31.3333M214 31L215 32L214 31z"/>
<path style="fill:#eaba6b; stroke:none;" d="M57 32L58 33L57 32z"/>
<path style="fill:#f7dca7; stroke:none;" d="M215 32L216 33L215 32z"/>
<path style="fill:#eaba6b; stroke:none;" d="M56 33L57 34L56 33z"/>
<path style="fill:#f7dca7; stroke:none;" d="M216 33L217 34L216 33z"/>
<path style="fill:#eaba6b; stroke:none;" d="M54 34L55 35L54 34M58 34L52 38L52 39L59 35L58 34z"/>
<path style="fill:#f7dca7; stroke:none;" d="M58 35L58 36L72 35L58 35z"/>
<path style="fill:#eaba6b; stroke:none;" d="M72 34L72 35L77 38L72 34M123 34L124 35L123 34M125 34L125 37L126 37L127 34L125 34M129 34L132 43L132 44C136.413 43.0544 135 37.7675 135 34L129 34M138 34C138.003 37.9871 137.402 41.6677 141 44L141 43L140 34L138 34M142 34L142 36L144 36L144 34L142 34M145 34L145 35L148 36L145 34M199 34L198 36L199 34z"/>
<path style="fill:#f7dca7; stroke:none;" d="M199 35L199 36L213 35L199 35z"/>
<path style="fill:#eaba6b; stroke:none;" d="M53 35L54 36L53 35z"/>
<path style="fill:#fefcf3; stroke:none;" d="M53 49C61.3579 44.7582 69.5114 45.2364 78 49L79 48C78.3592 44.8622 78.7485 41.0202 76.527 38.483C66.9324 27.5252 53.0077 37.4139 53 49z"/>
<path style="fill:#f7dca7; stroke:none;" d="M73 35L74 36L73 35M123 35L125 37L125 35L123 35z"/>
<path style="fill:#fda51e; stroke:none;" d="M131 35L134 38L131 35z"/>
<path style="fill:#f7dca7; stroke:none;" d="M135 35L135 44L136 44L135 35z"/>
<path style="fill:#fefcf3; stroke:none;" d="M194 48C203.954 45.9564 210.279 46.0107 220 49C219.986 30.6372 194.065 29.6285 194 48z"/>
<path style="fill:#f7dca7; stroke:none;" d="M214 35L215 36L214 35M219 35L220 36L219 35M51 36L50 38L51 36M56 36L57 37L56 36M74 36L75 37L74 36z"/>
<path style="fill:#eaba6b; stroke:none;" d="M123 36L124 37L123 36z"/>
<path style="fill:#f7dca7; stroke:none;" d="M129 36L129 38L131 38L131 36L129 36M142.667 36.3333L143.333 36.6667L142.667 36.3333z"/>
<path style="fill:#eaba6b; stroke:none;" d="M149 36L150 37L149 36M196 36L193 40L196 36z"/>
<path style="fill:#f7dca7; stroke:none;" d="M197 36L198 37L197 36z"/>
<path style="fill:#fda51e; stroke:none;" d="M218 36L220 38L218 36z"/>
<path style="fill:#f7dca7; stroke:none;" d="M220 36L221 37L220 36M226 36L227 37L226 36z"/>
<path style="fill:#eaba6b; stroke:none;" d="M51 37L52 38L51 37z"/>
<path style="fill:#f7dca7; stroke:none;" d="M55 37L56 38L55 37M75 37L76 38L75 37z"/>
<path style="fill:#eaba6b; stroke:none;" d="M128 37L129 38L128 37M141 37L142 38L141 37z"/>
<path style="fill:#fefcf3; stroke:none;" d="M141 38L141 39L145 39L141 38z"/>
<path style="fill:#eaba6b; stroke:none;" d="M144 37L145 38L144 37z"/>
<path style="fill:#f7dca7; stroke:none;" d="M196 37L197 38L196 37M217 37L218 38L217 37M221 37L222 38L221 37M48 38L49 39L48 38z"/>
<path style="fill:#eaba6b; stroke:none;" d="M49 38L50 39L49 38z"/>
<path style="fill:#f7dca7; stroke:none;" d="M77 38L78 41L79 41L77 38z"/>
<path style="fill:#eaba6b; stroke:none;" d="M78 38L79 39L78 38z"/>
<path style="fill:#f7dca7; stroke:none;" d="M127 38L130 42L133 38L127 38z"/>
<path style="fill:#fefcf3; stroke:none;" d="M128 38L128 39L132 39L128 38z"/>
<path style="fill:#f7dca7; stroke:none;" d="M140 38L142 42L143 42L144 42L146 38L140 38M195 38L196 39L195 38M218 38L219 39L218 38M222 38L223 39L222 38z"/>
<path style="fill:#eaba6b; stroke:none;" d="M48 39L49 40L48 39z"/>
<path style="fill:#f7dca7; stroke:none;" d="M52 39L54 51L52 54L53 54L55 48C51.1741 48 53.2353 41.6417 54 39L52 39z"/>
<path style="fill:#eaba6b; stroke:none;" d="M79 39L79 50C71.6683 45.9999 60.4082 42.7383 54 50C64.4637 46.2857 69.1935 47.1498 79 52L79 39M127 39L128 40L127 39z"/>
<path style="fill:#f7dca7; stroke:none;" d="M194 39L195 40L194 39M219 39L220 40L219 39z"/>
<path style="fill:#fda51e; stroke:none;" d="M221 39L218 55L218 56C223.58 64.1863 220 82.2415 220 92L224 92L224 106L228 106C228 140.738 232.328 178.726 228 213C232.151 215.289 231.984 218.579 232 223C242.945 214.939 250.646 199.385 255.6 187C270.358 150.106 269.337 107.979 249.576 73C242.864 61.1198 233.459 45.4634 221 39z"/>
<path style="fill:#f7dca7; stroke:none;" d="M223 39L224 40L223 39M46 40L38 49L46 40z"/>
<path style="fill:#eaba6b; stroke:none;" d="M47 40L48 41L47 40M128 40L129 41L128 40M131.333 40.6667L131.667 41.3333L131.333 40.6667M141 40L142 41L141 40M144 40L145 41L144 40z"/>
<path style="fill:#f7dca7; stroke:none;" d="M193.333 40.6667L193.667 41.3333L193.333 40.6667M224.667 40.3333L225.333 40.6667L224.667 40.3333z"/>
<path style="fill:#eaba6b; stroke:none;" d="M46 41L47 42L46 41M129 41L130 42L129 41M225 41L226 42L225 41M45 42L46 43L45 42z"/>
<path style="fill:#f7dca7; stroke:none;" d="M78 42L78 47L79 47L78 42z"/>
<path style="fill:#eaba6b; stroke:none;" d="M193 42L194 43L193 42M226 42L228 44L226 42z"/>
<path style="fill:#f7dca7; stroke:none;" d="M227 42L228 43L227 42z"/>
<path style="fill:#eaba6b; stroke:none;" d="M44 43L45 44L44 43z"/>
<path style="fill:#f7dca7; stroke:none;" d="M138 43L139 44L138 43M193 43L194 44L193 43z"/>
<path style="fill:#eaba6b; stroke:none;" d="M43 44L44 45L43 44z"/>
<path style="fill:#f7dca7; stroke:none;" d="M132 44L132 45L138 46L138 45L132 44M139 44L139 46L141 44L139 44z"/>
<path style="fill:#eaba6b; stroke:none;" d="M193.333 44.6667L193.667 45.3333L193.333 44.6667M228 44L230 46L228 44z"/>
<path style="fill:#f7dca7; stroke:none;" d="M229 44L230 45L229 44M36 45L37 46L36 45z"/>
<path style="fill:#eaba6b; stroke:none;" d="M42 45L43 46L42 45M132 45L133 46L132 45M138 45L139 46L138 45M140 45L141 46L140 45M41 46L42 47L41 46z"/>
<path style="fill:#f7dca7; stroke:none;" d="M56.6667 46.3333L57.3333 46.6667L56.6667 46.3333M73 46L74 47L73 46M193 46L194 47L193 46M198 46L199 47L198 46M214 46L215 47L214 46M230.667 46.3333L231.333 46.6667L230.667 46.3333z"/>
<path style="fill:#eaba6b; stroke:none;" d="M40 47L41 48L40 47z"/>
<path style="fill:#f7dca7; stroke:none;" d="M59 47L59 48L72 48L59 47M74 47L75 48L74 47z"/>
<path style="fill:#eaba6b; stroke:none;" d="M193 47L194 48L193 47z"/>
<path style="fill:#f7dca7; stroke:none;" d="M197 47L198 48L197 47M197 50L213 48C208.108 45.9472 200.775 46.1451 197 50z"/>
<path style="fill:#eaba6b; stroke:none;" d="M231 47L232 48L231 47M39 48L40 49L39 48z"/>
<path style="fill:#f7dca7; stroke:none;" d="M57 48L56 50L57 48z"/>
<path style="fill:#fefcf3; stroke:none;" d="M53 54C62.4726 50.6375 68.5274 50.6375 78 54C73.6101 45.2989 57.371 45.4773 53 54z"/>
<path style="fill:#f7dca7; stroke:none;" d="M73 48L74 49L73 48M76 48L77 49L76 48M78 48L77 50L79 50L78 48M193 48L194 50L195 50L196 48L193 48z"/>
<path style="fill:#fefcf3; stroke:none;" d="M194 54C203.071 51.7481 209.018 49.4852 218 54L219 53C213.248 46.131 198.475 45.1299 194 54z"/>
<path style="fill:#f7dca7; stroke:none;" d="M214 48L215 49L214 48M217 48L218 49L217 48M232.667 48.3333L233.333 48.6667L232.667 48.3333z"/>
<path style="fill:#eaba6b; stroke:none;" d="M38 49L39 50L38 49z"/>
<path style="fill:#f7dca7; stroke:none;" d="M74 49L75 50L74 49M215 49L216 50L215 49M218 49L220 51L220 49L218 49z"/>
<path style="fill:#eaba6b; stroke:none;" d="M232.667 49.3333L233.333 49.6667L232.667 49.3333z"/>
<path style="fill:#f7dca7; stroke:none;" d="M37 50L36 52L37 50z"/>
<path style="fill:#eaba6b; stroke:none;" d="M52 50L52 52L54 50L52 50z"/>
<path style="fill:#f7dca7; stroke:none;" d="M195 50L194 52L196 52L195 50M217 50L218 51L217 50M234 50L238 54L234 50z"/>
<path style="fill:#eaba6b; stroke:none;" d="M37 51L38 52L37 51z"/>
<path style="fill:#f7dca7; stroke:none;" d="M58 51L58 52L73 52L58 51M76.6667 51.3333L77.3333 51.6667L76.6667 51.3333M198 52L197 56L214 54L214 53L199 53L199 52L214 52L198 52M218 51L219 52L218 51z"/>
<path style="fill:#eaba6b; stroke:none;" d="M234 51L235 52L234 51z"/>
<path style="fill:#f7dca7; stroke:none;" d="M35 52L34 54L35 52M56 52L54 55L56 52z"/>
<path style="fill:#eaba6b; stroke:none;" d="M50 92L80 92L80 91L52 91C52 82.4805 48.9399 66.6499 53.0278 59.0903C58.5133 48.946 74.5737 51.9233 79 61L80 61L78 54C74.6141 52.9435 71.5789 52.0645 68 52.0046C43.0908 51.5881 53.949 75.413 50 92z"/>
<path style="fill:#f7dca7; stroke:none;" d="M74 52L75 53L74 52M78 52L79 53L78 52M193 52L194 53L193 52z"/>
<path style="fill:#eaba6b; stroke:none;" d="M199 52L199 53C208.365 53 213.168 53.6725 221 59L218 56L218 55L220 53L199 52z"/>
<path style="fill:#f7dca7; stroke:none;" d="M215 52L216 53L215 52M219 52L220 53L219 52z"/>
<path style="fill:#eaba6b; stroke:none;" d="M235 52L236 53L235 52M35 53L36 54L35 53z"/>
<path style="fill:#f7dca7; stroke:none;" d="M58 53L58 54L73 54L58 53M75 53L76 54L75 53z"/>
<path style="fill:#eaba6b; stroke:none;" d="M78 53L79 54L78 53M193 53L194 54L193 53M194 54L192 92L220 92L220 91L193 91C193 77.425 190.345 63.9175 199 53L194 54z"/>
<path style="fill:#f7dca7; stroke:none;" d="M216 53L217 54L216 53M218 53L219 54L218 53z"/>
<path style="fill:#eaba6b; stroke:none;" d="M236 53L237 54L236 53M34 54L35 55L34 54M53 54L54 55L53 54z"/>
<path style="fill:#fefcf3; stroke:none;" d="M52 90L78 90C78 81.4694 81.0354 65.7881 77.0116 58.189C73.4033 51.3748 56.8045 52.2089 53.0278 58.4437C48.8217 65.3873 52 81.9524 52 90z"/>
<path style="fill:#f7dca7; stroke:none;" d="M195 54L196 55L195 54z"/>
<path style="fill:#fefcf3; stroke:none;" d="M193 90L218.394 88.973L219.63 80.8302L220 58C217.076 56.1608 214.536 54.3596 211 54.0586C187.786 52.0828 193 73.3411 193 90z"/>
<path style="fill:#f7dca7; stroke:none;" d="M215 54L216 55L215 54z"/>
<path style="fill:#eaba6b; stroke:none;" d="M237 54L238 55L237 54M33 55L34 56L33 55z"/>
<path style="fill:#f7dca7; stroke:none;" d="M74 55L75 56L74 55M216 55L217 56L216 55M238 55L244 62L238 55z"/>
<path style="fill:#eaba6b; stroke:none;" d="M32 56L30 60L32 56z"/>
<path style="fill:#f7dca7; stroke:none;" d="M54 56L55 57L54 56M76 56L77 57L76 56M195 56L196 57L195 56M217 56L218 57L217 56z"/>
<path style="fill:#eaba6b; stroke:none;" d="M238 56L239 57L238 56z"/>
<path style="fill:#f7dca7; stroke:none;" d="M31 57L32 58L31 57M53 57L54 58L53 57M77 57L78 58L77 57M194 57L195 58L194 57M218 57L219 58L218 57z"/>
<path style="fill:#eaba6b; stroke:none;" d="M239 57L240 58L239 57z"/>
<path style="fill:#f7dca7; stroke:none;" d="M30 58L31 59L30 58M78 58L78 90L79 90L78 58M193 58L194 59L193 58z"/>
<path style="fill:#eaba6b; stroke:none;" d="M240 58L241 59L240 58z"/>
<path style="fill:#f7dca7; stroke:none;" d="M63 59L63 60L68 60L63 59M29 60L28 62L29 60M60 60L58 63L60 60z"/>
<path style="fill:#eaba6b; stroke:none;" d="M58 64L63 61L58 64z"/>
<path style="fill:#fda51e; stroke:none;" d="M63.0193 60.7577C54.2391 63.9771 59.6452 76.4957 67.956 73.392C76.3801 70.2459 71.2418 57.7428 63.0193 60.7577z"/>
<path style="fill:#eaba6b; stroke:none;" d="M68 60L69 61L68 60z"/>
<path style="fill:#f7dca7; stroke:none;" d="M69 60L69 61L72 62L69 60M193 60L194 61L193 60z"/>
<path style="fill:#eaba6b; stroke:none;" d="M241 60L242 61L241 60M29 61L30 62L29 61M70 61L71 62L70 61z"/>
<path style="fill:#f7dca7; stroke:none;" d="M219 61L220 62L219 61z"/>
<path style="fill:#eaba6b; stroke:none;" d="M242 61L243 62L242 61M28 62L29 63L28 62M71 62L72 63L71 62M79 62L80 63L79 62z"/>
<path style="fill:#f7dca7; stroke:none;" d="M202 66L210 64C206.612 61.5854 204.488 63.0216 202 66z"/>
<path style="fill:#eaba6b; stroke:none;" d="M243 62L244 63L243 62z"/>
<path style="fill:#f7dca7; stroke:none;" d="M27 63L26 65L27 63M72 63L73 66L74 66L72 63z"/>
<path style="fill:#eaba6b; stroke:none;" d="M205 63L205 64L209 64L205 63z"/>
<path style="fill:#f7dca7; stroke:none;" d="M219 63L220 64L219 63z"/>
<path style="fill:#eaba6b; stroke:none;" d="M220 63L221 64L220 63z"/>
<path style="fill:#f7dca7; stroke:none;" d="M244 63L246 65L244 63z"/>
<path style="fill:#eaba6b; stroke:none;" d="M27 64L28 65L27 64z"/>
<path style="fill:#f7dca7; stroke:none;" d="M57.3333 64.6667L57.6667 65.3333L57.3333 64.6667z"/>
<path style="fill:#eaba6b; stroke:none;" d="M72.3333 64.6667L72.6667 65.3333L72.3333 64.6667M79.3333 64.6667L79.6667 65.3333L79.3333 64.6667z"/>
<path style="fill:#fda51e; stroke:none;" d="M204.8 65.0316C202.03 67.5369 206.706 71.5604 209.378 69.2037C212.577 66.383 207.524 62.5679 204.8 65.0316z"/>
<path style="fill:#eaba6b; stroke:none;" d="M210 64L211 65L210 64z"/>
<path style="fill:#f7dca7; stroke:none;" d="M211.333 64.6667L211.667 65.3333L211.333 64.6667z"/>
<path style="fill:#eaba6b; stroke:none;" d="M244 64L245 65L244 64M26 65L27 66L26 65M203 65L204 66L203 65M245 65L246 66L245 65z"/>
<path style="fill:#f7dca7; stroke:none;" d="M25 66L24 68L25 66z"/>
<path style="fill:#eaba6b; stroke:none;" d="M57.3333 66.6667L57.6667 67.3333L57.3333 66.6667M73.3333 66.6667L73.6667 67.3333L73.3333 66.6667M202 66L203 67L202 66M211 66L208 70L208 71L211 66z"/>
<path style="fill:#f7dca7; stroke:none;" d="M246 66L248 70L249 70L246 66z"/>
<path style="fill:#eaba6b; stroke:none;" d="M25 67L26 68L25 67M79 67L79 70L80 70L79 67z"/>
<path style="fill:#f7dca7; stroke:none;" d="M202.333 67.6667L202.667 68.3333L202.333 67.6667z"/>
<path style="fill:#eaba6b; stroke:none;" d="M246 67L247 68L246 67M24 68L25 69L24 68z"/>
<path style="fill:#f7dca7; stroke:none;" d="M57.3333 68.6667L57.6667 69.3333L57.3333 68.6667M73.3333 68.6667L73.6667 69.3333L73.3333 68.6667z"/>
<path style="fill:#eaba6b; stroke:none;" d="M203 68L206 71L203 68z"/>
<path style="fill:#f7dca7; stroke:none;" d="M219.333 68.6667L219.667 69.3333L219.333 68.6667M23 69L20 75L21 75L23 69z"/>
<path style="fill:#eaba6b; stroke:none;" d="M72 69L69 74L72 69z"/>
<path style="fill:#f7dca7; stroke:none;" d="M211 69L212 70L211 69z"/>
<path style="fill:#eaba6b; stroke:none;" d="M247 69L248 70L247 69z"/>
<path style="fill:#f7dca7; stroke:none;" d="M18 70L19 71L18 70z"/>
<path style="fill:#eaba6b; stroke:none;" d="M23 70L24 71L23 70M58 70L62 74L58 70z"/>
<path style="fill:#f7dca7; stroke:none;" d="M210 70L211 71L210 70z"/>
<path style="fill:#eaba6b; stroke:none;" d="M248 70L250 73L248 70z"/>
<path style="fill:#f7dca7; stroke:none;" d="M58 71L59 72L58 71M72 71L73 72L72 71M205 71L205 72L210 72L205 71M219.333 71.6667L219.667 72.3333L219.333 71.6667M249 71L250 72L249 71z"/>
<path style="fill:#eaba6b; stroke:none;" d="M22 72L23 73L22 72z"/>
<path style="fill:#f7dca7; stroke:none;" d="M59 72L60 73L59 72M71 72L72 73L71 72z"/>
<path style="fill:#eaba6b; stroke:none;" d="M79 72L80 73L79 72z"/>
<path style="fill:#f7dca7; stroke:none;" d="M254 72L255 73L254 72M60 73L61 74L60 73M70 73L71 74L70 73M250 73L253 79L254 79L250 73z"/>
<path style="fill:#eaba6b; stroke:none;" d="M21 74L22 75L21 74z"/>
<path style="fill:#f7dca7; stroke:none;" d="M62 74L63 75L62 74z"/>
<path style="fill:#eaba6b; stroke:none;" d="M63 74L63 75L67 75L63 74z"/>
<path style="fill:#f7dca7; stroke:none;" d="M67.6667 74.3333L68.3333 74.6667L67.6667 74.3333z"/>
<path style="fill:#eaba6b; stroke:none;" d="M79 74L79 78L80 78L79 74M250 74L251 75L250 74M20 75L21 76L20 75z"/>
<path style="fill:#f7dca7; stroke:none;" d="M19 76L20 77L19 76z"/>
<path style="fill:#eaba6b; stroke:none;" d="M251 76L252 77L251 76M19 77L16 85L17 85L19 77z"/>
<path style="fill:#f7dca7; stroke:none;" d="M58 78L58 79L72 78L58 78M18 78L19 79L18 78z"/>
<path style="fill:#eaba6b; stroke:none;" d="M59 78L59 79L72 79L59 78z"/>
<path style="fill:#f7dca7; stroke:none;" d="M200 78L200 79L214 79L200 78z"/>
<path style="fill:#eaba6b; stroke:none;" d="M212 78L213 79L212 78M252 78L253 79L252 78z"/>
<path style="fill:#f7dca7; stroke:none;" d="M257 78L258 79L257 78M58 82L73 82L72 79L58 82z"/>
<path style="fill:#fefcf3; stroke:none;" d="M63 79L64 80L63 79M65.6667 79.3333L66.3333 79.6667L65.6667 79.3333M69 79L70 80L69 79z"/>
<path style="fill:#eaba6b; stroke:none;" d="M79 79L80 80L79 79z"/>
<path style="fill:#f7dca7; stroke:none;" d="M219 79L219 82L220 82L219 79z"/>
<path style="fill:#eaba6b; stroke:none;" d="M253.333 79.6667L253.667 80.3333L253.333 79.6667z"/>
<path style="fill:#f7dca7; stroke:none;" d="M17 80L18 81L17 80M258 80L259 81L258 80z"/>
<path style="fill:#eaba6b; stroke:none;" d="M71 81L72 82L71 81M79 81L79 84L80 84L79 81z"/>
<path style="fill:#f7dca7; stroke:none;" d="M200 81L200 82L214 82L200 81M254 81L255 84L256 84L254 81M16 82L17 83L16 82z"/>
<path style="fill:#eaba6b; stroke:none;" d="M254 82L255 83L254 82z"/>
<path style="fill:#f7dca7; stroke:none;" d="M259 82L260 83L259 82M219 83L220 84L219 83M58 86L62 85L58 86z"/>
<path style="fill:#eaba6b; stroke:none;" d="M61 85L61 86L71 85L61 85z"/>
<path style="fill:#f7dca7; stroke:none;" d="M68 85L68 86L73 84L68 85z"/>
<path style="fill:#eaba6b; stroke:none;" d="M200 84L200 85L213 85L200 84z"/>
<path style="fill:#f7dca7; stroke:none;" d="M213 84L200 85L200 86L213 84z"/>
<path style="fill:#eaba6b; stroke:none;" d="M255 84L256 88L257 88L255 84z"/>
<path style="fill:#f7dca7; stroke:none;" d="M260 84L261 85L260 84M15 85L14 88L15 88L15 85M64.6667 85.3333L65.3333 85.6667L64.6667 85.3333M256 85L257 86L256 85z"/>
<path style="fill:#eaba6b; stroke:none;" d="M15.3333 86.6667L15.6667 87.3333L15.3333 86.6667z"/>
<path style="fill:#f7dca7; stroke:none;" d="M257.333 87.6667L257.667 88.3333L257.333 87.6667z"/>
<path style="fill:#eaba6b; stroke:none;" d="M14.3333 88.6667L14.6667 89.3333L14.3333 88.6667z"/>
<path style="fill:#f7dca7; stroke:none;" d="M13.3333 89.6667L13.6667 90.3333L13.3333 89.6667M219 89L193 90L193 91L219 89z"/>
<path style="fill:#eaba6b; stroke:none;" d="M257 89L258 90L257 89z"/>
<path style="fill:#f7dca7; stroke:none;" d="M52 90L52 91L78 91L52 90M258 90L259 91L258 90M8.33333 91.6667L8.66667 92.3333L8.33333 91.6667z"/>
<path style="fill:#eaba6b; stroke:none;" d="M13 91L12 95L13 95L13 91M258.333 91.6667L258.667 92.3333L258.333 91.6667z"/>
<path style="fill:#f7dca7; stroke:none;" d="M12 92L13 93L12 92z"/>
<path style="fill:#eaba6b; stroke:none;" d="M48 92L48 106L83 106L83 105L49 105L48 92z"/>
<path style="fill:#f7dca7; stroke:none;" d="M49 92L49 105L82 105L82 104L50 104L50 93L82 93L49 92z"/>
<path style="fill:#eaba6b; stroke:none;" d="M190 92L191 93L190 92z"/>
<path style="fill:#f7dca7; stroke:none;" d="M190 105L205 105L214 105C219.369 104.998 230.662 99.5744 222.397 93.0278C217.879 89.4495 203.624 91.962 198 92.0008C195.791 92.016 192.583 91.6395 191.028 93.6034C188.953 96.2232 190 101.855 190 105z"/>
<path style="fill:#eaba6b; stroke:none;" d="M223 92L224 93L223 92z"/>
<path style="fill:#f7dca7; stroke:none;" d="M259.333 92.6667L259.667 93.3333L259.333 92.6667z"/>
<path style="fill:#fefcf3; stroke:none;" d="M50 93L50 104L82 104L82 93L50 93z"/>
<path style="fill:#eaba6b; stroke:none;" d="M82 93L82 104L83 104L82 93z"/>
<path style="fill:#fefcf3; stroke:none;" d="M191 93L191 104L223 104L223 93L191 93z"/>
<path style="fill:#eaba6b; stroke:none;" d="M259.333 94.6667L259.667 95.3333L259.333 94.6667z"/>
<path style="fill:#f7dca7; stroke:none;" d="M7 95L8 96L7 95M11.3333 95.6667L11.6667 96.3333L11.3333 95.6667M260 96L261 101L262 101L260 96M264 96L265 97L264 96z"/>
<path style="fill:#eaba6b; stroke:none;" d="M11.3333 97.6667L11.6667 98.3333L11.3333 97.6667z"/>
<path style="fill:#f7dca7; stroke:none;" d="M6.33333 98.6667L6.66667 99.3333L6.33333 98.6667M10.3333 98.6667L10.6667 99.3333L10.3333 98.6667z"/>
<path style="fill:#eaba6b; stroke:none;" d="M260.333 98.6667L260.667 99.3333L260.333 98.6667z"/>
<path style="fill:#f7dca7; stroke:none;" d="M265 98L266 99L265 98z"/>
<path style="fill:#eaba6b; stroke:none;" d="M10.3333 100.667L10.6667 101.333L10.3333 100.667z"/>
<path style="fill:#f7dca7; stroke:none;" d="M9 101L9 104L10 104L9 101z"/>
<path style="fill:#eaba6b; stroke:none;" d="M261.333 101.667L261.667 102.333L261.333 101.667z"/>
<path style="fill:#f7dca7; stroke:none;" d="M262.333 102.667L262.667 103.333L262.333 102.667M266 103L267 104L266 103z"/>
<path style="fill:#eaba6b; stroke:none;" d="M9.33333 104.667L9.66667 105.333L9.33333 104.667M223 104L190 105L190 106L216 106L223 104M262 104L262 107L263 107L262 104z"/>
<path style="fill:#f7dca7; stroke:none;" d="M4.33333 105.667L4.66667 106.333L4.33333 105.667M8.33333 105.667L8.66667 106.333L8.33333 105.667M263 105L263 108L264 108L263 105z"/>
<path style="fill:#eaba6b; stroke:none;" d="M44 106L44 213C39.6134 214.456 40.0147 217.85 40 222L36 220L41 225L41 214L71 214C74.7312 214 80.3733 212.98 83.4506 215.564C91.6033 222.411 87 248.272 87 258L90 258L90 245L89 245L89 248L88 248L88 242L91 243L91 242C87.6193 238.419 85.2321 226.186 91.1481 223.603C97.5869 220.792 109.01 223 116 223L116 240C108.31 233.103 97.0692 230.999 90 240L91 241C99.5675 235.434 107.274 233.682 114 243L117 242L120 235C116.415 235 118 226.125 118 223L156 223L156 235L155 235L151 230L157 242L160 242C166.365 233.233 177.672 232.977 183 243C187.528 238.692 188.562 220.525 189 214L231 214L231 225L236 220L232 223L230.4 213.869L218.089 212.081L188 212L45 212L45 202L228 202L228 210L229 210L228 200C218.026 201.31 208.044 201.001 198 201C194.659 201 189.2 201.937 187.028 198.682C182.487 191.877 186 173.122 186 165L87 165L96 159L96 158L87 162L87 106L86 106L86 171C86 178.481 88.4059 190.959 85.3966 197.852C82.367 204.791 61.2721 200.301 55 200.754C52.0374 200.968 47.9561 201.572 46.0278 198.682C42.6191 193.574 45 180.997 45 175L45 128C45 121.314 46.5991 112.194 44 106z"/>
<path style="fill:#f7dca7; stroke:none;" d="M45 106L45 128L46 128L46 107L86 107C75.2501 102.489 56.6957 106 45 106z"/>
<path style="fill:#eaba6b; stroke:none;" d="M185 106L185 143L183 162L186 163L186 124L185 106z"/>
<path style="fill:#f7dca7; stroke:none;" d="M186 106L186 107L227 107L227 174C227 181.228 229.472 194.098 225 200C229.907 200.809 228 182.722 228 179L228 129C228 123.305 229.916 113.425 227.523 108.218C225.976 104.85 219.984 106 217 106L186 106z"/>
<path style="fill:#eaba6b; stroke:none;" d="M227 106L228 107L227 106M8 107L8 111L9 111L8 107z"/>
<path style="fill:#fefcf3; stroke:none;" d="M46 107L46 170L46 200L86 200L86 107L46 107M186 107L186 163C171.564 157.675 154.788 149.209 142.059 140.532C134.849 135.618 137.87 127.265 146 127L138 124L138 119L135 119L135 124L127 127C135.239 127.268 138.109 135.797 130.941 140.815C118.198 149.737 98.2133 153.086 88 165L186 165L186 200L227 200L227 107L186 107z"/>
<path style="fill:#eaba6b; stroke:none;" d="M263 108L263 111L264 111L263 108z"/>
<path style="fill:#f7dca7; stroke:none;" d="M7 110L7 113L8 113L7 110M3.33333 111.667L3.66667 112.333L3.33333 111.667M264 111L264 114L265 114L264 111M268.333 111.667L268.667 112.333L268.333 111.667z"/>
<path style="fill:#eaba6b; stroke:none;" d="M7 113L7 117L8 117L7 113z"/>
<path style="fill:#f7dca7; stroke:none;" d="M2 114L2 119L3 119L2 114M6 114L6 119L7 119L6 114z"/>
<path style="fill:#eaba6b; stroke:none;" d="M264 114L264 119L265 119L264 114z"/>
<path style="fill:#f7dca7; stroke:none;" d="M265 115L265 120L266 120L265 115M269 117L269 120L270 120L269 117M134 118L134 124L135 124L135 119L138 119L138 124L139 124L139 118L134 118z"/>
<path style="fill:#eaba6b; stroke:none;" d="M139 118L141 124L139 118M6 119L6 124L7 124L6 119M265 120L265 127L266 127L265 120z"/>
<path style="fill:#f7dca7; stroke:none;" d="M5 122L5 131L6 131L5 122M1 123L1 130L2 130L1 123z"/>
<path style="fill:#eaba6b; stroke:none;" d="M127 123L126 128L127 128L127 123M131 123L132 124L131 123M133 123L134 124L133 123z"/>
<path style="fill:#f7dca7; stroke:none;" d="M127.333 124.667L127.667 125.333L127.333 124.667M145 124L146 125L145 124z"/>
<path style="fill:#eaba6b; stroke:none;" d="M146 124L146 128L147 128L146 124z"/>
<path style="fill:#f7dca7; stroke:none;" d="M270 124L271 125L270 124M65 125L65 126C71.9537 132.136 70.0129 150.545 68 159L69 159C71.3359 151.097 73.179 129.292 65 125M205 125L204 127L205 125z"/>
<path style="fill:#eaba6b; stroke:none;" d="M204 128L208 126L204 128z"/>
<path style="fill:#f7dca7; stroke:none;" d="M208 125L210 127L208 125M266 125L266 148L267 148L266 125M63 126L64 127L63 126z"/>
<path style="fill:#eaba6b; stroke:none;" d="M64 126L62 134L63 134L64 126z"/>
<path style="fill:#fda51e; stroke:none;" d="M65 126C61.5606 132.348 59.1737 157.296 68 158C68 149.543 71.3129 132.182 65 126z"/>
<path style="fill:#eaba6b; stroke:none;" d="M66 126L67 127L66 126z"/>
<path style="fill:#fda51e; stroke:none;" d="M210 158L209 126C200.825 128.482 200.508 157.26 210 158z"/>
<path style="fill:#eaba6b; stroke:none;" d="M67 127L68 128L67 127z"/>
<path style="fill:#f7dca7; stroke:none;" d="M127 127L127 128L134 128L133 140C137.925 133.499 134.677 127.091 127 127M138 139L139 139L139 128L146 128C137.559 124.497 138 133.149 138 139z"/>
<path style="fill:#eaba6b; stroke:none;" d="M209 127L210 128L209 127M133 128L134 129L133 128M139 128L139 139L140 139L141 128L139 128z"/>
<path style="fill:#f7dca7; stroke:none;" d="M203.333 128.667L203.667 129.333L203.333 128.667M210 128L210 131L211 131L210 128z"/>
<path style="fill:#eaba6b; stroke:none;" d="M68 129L68 158L69 158L68 129M203 130C203 136.47 200.025 153.653 205 158L203 130z"/>
<path style="fill:#f7dca7; stroke:none;" d="M270 130L270 142L271 142L270 130z"/>
<path style="fill:#eaba6b; stroke:none;" d="M5 131L5 141L6 141L5 131z"/>
<path style="fill:#f7dca7; stroke:none;" d="M61 131L61 134L62 134L61 131z"/>
<path style="fill:#eaba6b; stroke:none;" d="M210 131L210 158L211 158L210 131z"/>
<path style="fill:#f7dca7; stroke:none;" d="M45 136L45 152L46 152L45 136M61.3333 136.667L61.6667 137.333L61.3333 136.667z"/>
<path style="fill:#eaba6b; stroke:none;" d="M62 136L62 154L63 154L62 136M133 136L134 137L133 136M133 138L134 139L133 138M132 139L133 140L132 139M140 139L140 140L149 144L149 143L140 139M130 140L131 141L130 140z"/>
<path style="fill:#f7dca7; stroke:none;" d="M131 140L132 141L131 140M141 140L142 141L141 140M1 141L1 150L2 150L1 141M5 141L5 150L6 150L5 141M61 141L61 145L62 145L61 141z"/>
<path style="fill:#eaba6b; stroke:none;" d="M128 141L129 142L128 141z"/>
<path style="fill:#f7dca7; stroke:none;" d="M129.667 141.333L130.333 141.667L129.667 141.333M143 141L144 142L143 141z"/>
<path style="fill:#eaba6b; stroke:none;" d="M126 142L127 143L126 142z"/>
<path style="fill:#f7dca7; stroke:none;" d="M127 142L128 143L127 142M145 142L146 143L145 142z"/>
<path style="fill:#eaba6b; stroke:none;" d="M124 143L125 144L124 143z"/>
<path style="fill:#f7dca7; stroke:none;" d="M125.667 143.333L126.333 143.667L125.667 143.333M147 143L148 144L147 143z"/>
<path style="fill:#eaba6b; stroke:none;" d="M122 144L117 147L117 148L123 145L122 144z"/>
<path style="fill:#f7dca7; stroke:none;" d="M123.667 144.333L124.333 144.667L123.667 144.333M149 144L152 146L152 145L149 144z"/>
<path style="fill:#eaba6b; stroke:none;" d="M150.667 144.333L151.333 144.667L150.667 144.333z"/>
<path style="fill:#f7dca7; stroke:none;" d="M122 145L123 146L122 145z"/>
<path style="fill:#eaba6b; stroke:none;" d="M152 145L153 146L152 145M265 145L265 153L266 153L265 145z"/>
<path style="fill:#f7dca7; stroke:none;" d="M61 146L61 151L62 151L61 146M120 146L121 147L120 146M153 146L156 148L156 147L153 146z"/>
<path style="fill:#eaba6b; stroke:none;" d="M154 146L155 147L154 146z"/>
<path style="fill:#f7dca7; stroke:none;" d="M118 147L119 148L118 147z"/>
<path style="fill:#eaba6b; stroke:none;" d="M156 147L157 148L156 147M115 148L116 149L115 148z"/>
<path style="fill:#f7dca7; stroke:none;" d="M116 148L117 149L116 148M157 148L160 150L160 149L157 148z"/>
<path style="fill:#eaba6b; stroke:none;" d="M158 148L159 149L158 148M6 149L6 154L7 154L6 149M113 149L114 150L113 149z"/>
<path style="fill:#f7dca7; stroke:none;" d="M114 149L115 150L114 149z"/>
<path style="fill:#eaba6b; stroke:none;" d="M160 149L161 150L160 149z"/>
<path style="fill:#eaba6b; stroke:none;" d="M109 152L112 151L109 152z"/>
<path style="fill:#f7dca7; stroke:none;" d="M112 150L113 151L112 150M161 150L163 152L161 150z"/>
<path style="fill:#eaba6b; stroke:none;" d="M162 150L163 151L162 150z"/>
<path style="fill:#f7dca7; stroke:none;" d="M110 151L111 152L110 151z"/>
<path style="fill:#eaba6b; stroke:none;" d="M163.667 151.333L164.333 151.667L163.667 151.333M107 152L108 153L107 152z"/>
<path style="fill:#f7dca7; stroke:none;" d="M108 152L109 153L108 152M164 152L164 153L167 154L164 152z"/>
<path style="fill:#eaba6b; stroke:none;" d="M166 152L167 153L166 152z"/>
<path style="fill:#f7dca7; stroke:none;" d="M269 152L269 157L270 157L269 152z"/>
<path style="fill:#eaba6b; stroke:none;" d="M105 153L106 154L105 153z"/>
<path style="fill:#f7dca7; stroke:none;" d="M106 153L107 154L106 153z"/>
<path style="fill:#eaba6b; stroke:none;" d="M167 153L167 154L180 160L180 159L167 153z"/>
<path style="fill:#f7dca7; stroke:none;" d="M265 153L265 157L266 157L265 153M2 154L2 158L3 158L2 154M6 154L6 158L7 158L6 154M61 154L62 159L63 159L61 154z"/>
<path style="fill:#eaba6b; stroke:none;" d="M103 154L101 155L101 156L103 154z"/>
<path style="fill:#f7dca7; stroke:none;" d="M104 154L105 155L104 154M168 154L169 155L168 154z"/>
<path style="fill:#eaba6b; stroke:none;" d="M264 154L264 158L265 158L264 154M7 155L7 160L8 160L7 155z"/>
<path style="fill:#f7dca7; stroke:none;" d="M103 155L104 156L103 155M170 155L171 156L170 155z"/>
<path style="fill:#eaba6b; stroke:none;" d="M62.3333 156.667L62.6667 157.333L62.3333 156.667M99 156L97 157L97 158L99 156z"/>
<path style="fill:#f7dca7; stroke:none;" d="M100 156L101 157L100 156M172 156L173 157L172 156M99 157L100 158L99 157M174 157L175 158L174 157z"/>
<path style="fill:#eaba6b; stroke:none;" d="M63 158L63 159L68 159L63 158z"/>
<path style="fill:#f7dca7; stroke:none;" d="M96.6667 158.333L97.3333 158.667L96.6667 158.333M176 158L177 159L176 158M203 158L203 159L210 159L203 158M264 158L264 162L265 162L264 158M3 159L3 162L4 162L3 159M45 159L45 193L46 193L45 159M95 159L96 160L95 159M178 159L179 160L178 159M7 160L7 163L8 163L7 160M93 160L94 161L93 160M180 160L183 162L183 161L180 160z"/>
<path style="fill:#eaba6b; stroke:none;" d="M181 160L182 161L181 160M263 160L262 168L263 168L263 160z"/>
<path style="fill:#f7dca7; stroke:none;" d="M268.333 160.667L268.667 161.333L268.333 160.667M91 161L92 162L91 161z"/>
<path style="fill:#eaba6b; stroke:none;" d="M8 162L8 165L9 165L8 162z"/>
<path style="fill:#f7dca7; stroke:none;" d="M89 162L90 163L89 162M184 162L185 163L184 162M87 163L87 165L89 163L87 163M8 165L8 168L9 168L8 165M263 165L263 168L264 168L263 165M267.333 165.667L267.667 166.333L267.333 165.667M4.33333 166.667L4.66667 167.333L4.33333 166.667z"/>
<path style="fill:#eaba6b; stroke:none;" d="M9 166L9 169L10 169L9 166z"/>
<path style="fill:#fda51e; stroke:none;" d="M87 166L87 201L95 201L93.7361 178.004L89 166L87 166z"/>
<path style="fill:#f7dca7; stroke:none;" d="M90 168L137 167L184 168C178.887 164.127 169.218 166 163 166L112 166C106.473 166 93.7963 163.656 90 168z"/>
<path style="fill:#fefcf3; stroke:none;" d="M90 168L90 170L93 174L181 174L184 170L184 168C174.597 165.221 162.782 167 153 167C133.863 167 108.32 162.585 90 168z"/>
<path style="fill:#f7dca7; stroke:none;" d="M262.333 168.667L262.667 169.333L262.333 168.667M9.33333 169.667L9.66667 170.333L9.33333 169.667M5 170L6 171L5 170M90 170L90 171C96.7983 177.216 107.243 175 116 175L181 175L181 174L93 174L90 170M181 172L184 171L181 172z"/>
<path style="fill:#eaba6b; stroke:none;" d="M261.333 170.667L261.667 171.333L261.333 170.667M10 171L11 176L12 176L10 171M90.6667 171.333L91.3333 171.667L90.6667 171.333M182 171L181 175L93 175L94 199L95 199L95 176L158 176C166.757 176 177.202 178.216 184 172L182 171z"/>
<path style="fill:#fda51e; stroke:none;" d="M184 171L179 176L179 201L186 201L184 171z"/>
<path style="fill:#f7dca7; stroke:none;" d="M200 171L200 172L204 173L204 172L200 171M211.667 171.333L212.333 171.667L211.667 171.333z"/>
<path style="fill:#eaba6b; stroke:none;" d="M58 172L58 173L62 176L63 176L58 172z"/>
<path style="fill:#f7dca7; stroke:none;" d="M61 172L62 173L61 172M69 172L68 174L69 172z"/>
<path style="fill:#eaba6b; stroke:none;" d="M68 175L72 173L73 176C73.0961 172.214 70.0941 173.049 68 175z"/>
<path style="fill:#f7dca7; stroke:none;" d="M72 172L73 173L72 172z"/>
<path style="fill:#eaba6b; stroke:none;" d="M199 172L198 176L199 176L199 172z"/>
<path style="fill:#fda51e; stroke:none;" d="M200 172C199.156 174.316 198.338 176.527 198.104 179.002C197.948 180.655 197.992 182.341 198.001 184C198.089 200.966 211.159 178.154 200 172z"/>
<path style="fill:#eaba6b; stroke:none;" d="M202 172L203 173L202 172M210 172L211 173L210 172z"/>
<path style="fill:#fda51e; stroke:none;" d="M211 172C210.015 174.335 209.299 176.449 209.093 179.002C208.959 180.659 208.992 182.339 209.001 184C209.09 200.966 222.159 178.153 211 172z"/>
<path style="fill:#eaba6b; stroke:none;" d="M213 172L215 174L213 172z"/>
<path style="fill:#f7dca7; stroke:none;" d="M214 172L215 173L214 172M261 172L260 177L261 177L261 172M6 173L7 174L6 173M10 173L10 176L11 176L10 173M57 173L56 176L57 176L57 173z"/>
<path style="fill:#fda51e; stroke:none;" d="M58 173L57 192L63 192C63 185.791 65.3041 175.307 58 173z"/>
<path style="fill:#f7dca7; stroke:none;" d="M62 173L63 174L62 173z"/>
<path style="fill:#fda51e; stroke:none;" d="M68 192C76.8398 191.311 74.8897 179.005 72 173C65.8755 176.377 68 185.873 68 192z"/>
<path style="fill:#f7dca7; stroke:none;" d="M73 173L74 174L73 173M198 173L199 174L198 173z"/>
<path style="fill:#eaba6b; stroke:none;" d="M203 173L204 174L203 173z"/>
<path style="fill:#f7dca7; stroke:none;" d="M209 173L208 177L209 177L209 173z"/>
<path style="fill:#eaba6b; stroke:none;" d="M260.333 173.667L260.667 174.333L260.333 173.667z"/>
<path style="fill:#f7dca7; stroke:none;" d="M265 173L266 174L265 173z"/>
<path style="fill:#eaba6b; stroke:none;" d="M57.3333 174.667L57.6667 175.333L57.3333 174.667z"/>
<path style="fill:#f7dca7; stroke:none;" d="M63 174L63 177L64 177L63 174z"/>
<path style="fill:#eaba6b; stroke:none;" d="M92 174L93 175L92 174z"/>
<path style="fill:#f7dca7; stroke:none;" d="M204 174L205 175L204 174z"/>
<path style="fill:#eaba6b; stroke:none;" d="M209.333 174.667L209.667 175.333L209.333 174.667z"/>
<path style="fill:#f7dca7; stroke:none;" d="M215 174L216 175L215 174M67 175L68 176L67 175M197 175L197 192L198 192L197 175z"/>
<path style="fill:#eaba6b; stroke:none;" d="M204 175L203 192C206.529 188.916 205.718 179.095 204 175M215 175L214 192C217.529 188.916 216.718 179.095 215 175z"/>
<path style="fill:#f7dca7; stroke:none;" d="M7 176L8 177L7 176M11.3333 176.667L11.6667 177.333L11.3333 176.667z"/>
<path style="fill:#eaba6b; stroke:none;" d="M56 176C56 179.956 54.4436 188.155 57.0278 191.396C63.9118 200.028 64 179.402 64 177L63 177L63 192L57 192L56 176M67 176C67 181.231 65.1401 189.849 70 193L70 192L67 176z"/>
<path style="fill:#f7dca7; stroke:none;" d="M74 176L73 193C76.5288 189.916 75.7184 180.095 74 176M95 176L95 200L97 200L96 177L178 177L177 201L178 201L179 176L95 176M205 176L205 192L206 192L205 176z"/>
<path style="fill:#eaba6b; stroke:none;" d="M259 176L258 181L259 181L259 176z"/>
<path style="fill:#f7dca7; stroke:none;" d="M264 176L265 177L264 176z"/>
<path style="fill:#eaba6b; stroke:none;" d="M12.3333 177.667L12.6667 178.333L12.3333 177.667z"/>
<path style="fill:#fefcf3; stroke:none;" d="M96 177L96 195L97 195C97.7537 186.632 106.044 177.769 113.721 186.134C117.287 190.019 116.997 195.088 117 200L128 200C128.013 181.077 144.948 181.221 145 200L147 200L146 188L149 200L156 200L159 185L160 185L158 200L160 200C160.002 183.673 172.989 183.672 173 200L178 200L178 177L96 177z"/>
<path style="fill:#eaba6b; stroke:none;" d="M208 177L209 192L210 192L208 177M179 178L179 198L180 198L179 178z"/>
<path style="fill:#f7dca7; stroke:none;" d="M12.3333 179.667L12.6667 180.333L12.3333 179.667M66 179L67 180L66 179M259 179L260 180L259 179z"/>
<path style="fill:#eaba6b; stroke:none;" d="M13.3333 180.667L13.6667 181.333L13.3333 180.667z"/>
<path style="fill:#f7dca7; stroke:none;" d="M258.333 181.667L258.667 182.333L258.333 181.667M13 182L14 183L13 182M106 182L106 183L109 183L106 182z"/>
<path style="fill:#eaba6b; stroke:none;" d="M257 182L256 186L257 186L257 182z"/>
<path style="fill:#f7dca7; stroke:none;" d="M262 182L263 183L262 182z"/>
<path style="fill:#eaba6b; stroke:none;" d="M14 183L15 187L16 187L14 183z"/>
<path style="fill:#f7dca7; stroke:none;" d="M66 183L67 184L66 183M103.333 183.667L103.667 184.333L103.333 183.667z"/>
<path style="fill:#eaba6b; stroke:none;" d="M104 183L104 184L110 184L104 183z"/>
<path style="fill:#f7dca7; stroke:none;" d="M110 183L112 186L113 185L112 183L110 183M100 184L100 187L101 187L102 184L100 184z"/>
<path style="fill:#eaba6b; stroke:none;" d="M102 184L101 186L102 184z"/>
<path style="fill:#fefcf3; stroke:none;" d="M99 200L100 200C100.055 184.003 113.954 183.982 114 200C117.105 192.602 110.081 177.546 101.514 186.434C98.2169 189.854 99.0005 195.658 99 200z"/>
<path style="fill:#eaba6b; stroke:none;" d="M111 184L112 185L111 184z"/>
<path style="fill:#f7dca7; stroke:none;" d="M133 184L133 185L141 186L133 184M257.333 184.667L257.667 185.333L257.333 184.667M10 185L11 186L10 185M14 185L15 186L14 185z"/>
<path style="fill:#eaba6b; stroke:none;" d="M112.667 185.333L113.333 185.667L112.667 185.333M130 188L135 186L130 188z"/>
<path style="fill:#fda51e; stroke:none;" d="M129 201L144 201C143.999 194.988 137.654 176.108 130.318 189.134C128.393 192.552 129 197.229 129 201z"/>
<path style="fill:#eaba6b; stroke:none;" d="M136 185L136 186L140 186L136 185z"/>
<path style="fill:#f7dca7; stroke:none;" d="M159 185L157 188L157 189L160 188L159 185z"/>
<path style="fill:#eaba6b; stroke:none;" d="M99 186L98 190L99 190L99 186z"/>
<path style="fill:#f7dca7; stroke:none;" d="M102 189C106.485 187.152 108.802 187.705 113 190C109.636 185.961 105.839 185.084 102 189M113 186L114 190L115 190L115 186L113 186M130 186L131 187L130 186z"/>
<path style="fill:#eaba6b; stroke:none;" d="M141 186L142 187L141 186M159 186L160 187L159 186z"/>
<path style="fill:#f7dca7; stroke:none;" d="M163 186L160 191L161 191L163 186z"/>
<path style="fill:#eaba6b; stroke:none;" d="M161 190C165.391 187.69 167.576 187.828 172 190C168.28 185.789 164.635 185.65 161 190z"/>
<path style="fill:#f7dca7; stroke:none;" d="M168.667 186.333L169.333 186.667L168.667 186.333M256.333 186.667L256.667 187.333L256.333 186.667M11.3333 187.667L11.6667 188.333L11.3333 187.667M15 187L16 188L15 187M98 187L99 188L98 187z"/>
<path style="fill:#eaba6b; stroke:none;" d="M104 187L104 188C111.578 188.573 111.995 193.431 112 200C115.003 192.843 111.61 187.247 104 187M114 187L115 188L114 187M142 187L143 191L144 191L142 187M158 187L159 188L158 187z"/>
<path style="fill:#fda51e; stroke:none;" d="M160 201L172 201C172 196.996 170.105 180.584 162.603 189.322C160.194 192.128 160.831 197.509 160 201z"/>
<path style="fill:#f7dca7; stroke:none;" d="M170 187L171 188L170 187z"/>
<path style="fill:#eaba6b; stroke:none;" d="M255 187L254 191L255 191L255 187M16 188L17 191L18 191L16 188z"/>
<path style="fill:#f7dca7; stroke:none;" d="M99.3333 188.667L99.6667 189.333L99.3333 188.667z"/>
<path style="fill:#fda51e; stroke:none;" d="M101 201L113 201C112.399 198.476 107.927 179.517 102.603 190.318C101.16 193.246 101.772 197.757 101 201z"/>
<path style="fill:#eaba6b; stroke:none;" d="M115 188L115 191L116 191L115 188z"/>
<path style="fill:#f7dca7; stroke:none;" d="M129 188L130 189L129 188M143 188L144 189L143 188M146.333 188.667L146.667 189.333L146.333 188.667z"/>
<path style="fill:#eaba6b; stroke:none;" d="M147 188L147 191L148 191L147 188z"/>
<path style="fill:#f7dca7; stroke:none;" d="M171 188L172 189L171 188M16.3333 189.667L16.6667 190.333L16.3333 189.667z"/>
<path style="fill:#eaba6b; stroke:none;" d="M129.333 189.667L129.667 190.333L129.333 189.667M157.333 189.667L157.667 190.333L157.333 189.667z"/>
<path style="fill:#f7dca7; stroke:none;" d="M255 189L256 190L255 189M97 190L98 200L99 200L97 190z"/>
<path style="fill:#eaba6b; stroke:none;" d="M101 190L101 200L102 200L101 190z"/>
<path style="fill:#f7dca7; stroke:none;" d="M116 190L115 200L117 200L116 190M128 190L128 200L129 200L128 190M148 190L147 200L149 200L148 190M156 190L156 200L157 200L156 190M172 190L172 200L173 200L172 190M17.3333 191.667L17.6667 192.333L17.3333 191.667z"/>
<path style="fill:#eaba6b; stroke:none;" d="M73 191L74 192L73 191z"/>
<path style="fill:#f7dca7; stroke:none;" d="M100 191L100 200L101 200L100 191M113 191L113 200L114 200L113 191M144 191L144 200L145 200L144 191z"/>
<path style="fill:#eaba6b; stroke:none;" d="M160 191L160 200L161 200L160 191M198 191L199 192L198 191z"/>
<path style="fill:#f7dca7; stroke:none;" d="M208 191L209 192L208 191M254 191L255 192L254 191z"/>
<path style="fill:#eaba6b; stroke:none;" d="M18 192L20 195L18 192z"/>
<path style="fill:#f7dca7; stroke:none;" d="M56 192L57 193L56 192M63 192L64 193L63 192M67 192L68 193L67 192M70.6667 192.333L71.3333 192.667L70.6667 192.333z"/>
<path style="fill:#eaba6b; stroke:none;" d="M72 192L73 193L72 192z"/>
<path style="fill:#f7dca7; stroke:none;" d="M199 192L199 193L204 193L199 192M209 192L209 193L215 193L209 192z"/>
<path style="fill:#eaba6b; stroke:none;" d="M253 192L254 193L253 192z"/>
<path style="fill:#f7dca7; stroke:none;" d="M258 192L259 193L258 192M253 193L252 196L253 193M18 194L19 195L18 194z"/>
<path style="fill:#eaba6b; stroke:none;" d="M252 194L253 195L252 194z"/>
<path style="fill:#f7dca7; stroke:none;" d="M19 195L20 196L19 195z"/>
<path style="fill:#eaba6b; stroke:none;" d="M20 196L22 199L20 196M251 196L252 197L251 196z"/>
<path style="fill:#f7dca7; stroke:none;" d="M45 197L45 200L46 200L45 197M251 197L250 200L251 197M20 198L21 199L20 198z"/>
<path style="fill:#eaba6b; stroke:none;" d="M250 198L251 199L250 198z"/>
<path style="fill:#f7dca7; stroke:none;" d="M21 199L22 200L21 199z"/>
<path style="fill:#eaba6b; stroke:none;" d="M249 199L248 202L249 199M22 200L24 204L25 204L22 200z"/>
<path style="fill:#f7dca7; stroke:none;" d="M46 200L46 201L57 201L46 200M59 200L59 201L85 201L59 200M99 200L100 201L99 200M114 200L115 201L114 200M118 200L118 201L121 201L118 200M122.667 200.333L123.333 200.667L122.667 200.333M126.667 200.333L127.333 200.667L126.667 200.333M145 200L146 201L145 200M150 200L150 201L154 201L150 200M155 200L156 201L155 200M158 200L159 201L158 200M187 200L187 201L224 201C214.202 196.889 197.649 200 187 200M254 200L255 201L254 200M22 201L23 202L22 201M249 201L250 202L249 201M45 202L46 203L45 202z"/>
<path style="fill:#fefcf3; stroke:none;" d="M45 203C45.1674 205.465 44.5768 209.229 46.7431 210.973C49.1483 212.91 54.13 212 57 212L84 212L194 212C205.157 212 229.562 217.778 227 202L103 202C85.3224 202 61.929 197.996 45 203z"/>
<path style="fill:#f7dca7; stroke:none;" d="M227 202L227 205L228 205L227 202M248 202L249 203L248 202M23 203L24 204L23 203z"/>
<path style="fill:#eaba6b; stroke:none;" d="M247 203L245 207L246 207L247 203z"/>
<path style="fill:#f7dca7; stroke:none;" d="M24 204L26 207L24 204M45 204L46 205L45 204M247 204L248 205L247 204z"/>
<path style="fill:#eaba6b; stroke:none;" d="M25 205L26 206L25 205M26 206L29 210L26 206z"/>
<path style="fill:#f7dca7; stroke:none;" d="M227 206L228 207L227 206M246 206L247 207L246 206M245 207L246 208L245 207M26 208L27 209L26 208z"/>
<path style="fill:#eaba6b; stroke:none;" d="M244 208L243 210L244 208z"/>
<path style="fill:#f7dca7; stroke:none;" d="M27 209L28 210L27 209M244 209L245 210L244 209M28 210L31 214L28 210M45.3333 210.667L45.6667 211.333L45.3333 210.667M243.333 210.667L243.667 211.333L243.333 210.667z"/>
<path style="fill:#eaba6b; stroke:none;" d="M29 211L30 212L29 211z"/>
<path style="fill:#f7dca7; stroke:none;" d="M227 211L228 212L227 211z"/>
<path style="fill:#eaba6b; stroke:none;" d="M242 211L243 212L242 211M30 212L31 213L30 212z"/>
<path style="fill:#f7dca7; stroke:none;" d="M84 212L85 213L84 212M196 212L196 213L199 213L196 212M208.667 212.333L209.333 212.667L208.667 212.333M215 212L216 213L215 212M225 212L226 213L225 212z"/>
<path style="fill:#eaba6b; stroke:none;" d="M241 212L240 214L241 212z"/>
<path style="fill:#f7dca7; stroke:none;" d="M241 213L242 214L241 213z"/>
<path style="fill:#eaba6b; stroke:none;" d="M31 214L34 217L31 214z"/>
<path style="fill:#f7dca7; stroke:none;" d="M41 214C40.9982 229.987 50.1831 238.128 64 246L66 244L66 243L61 240C53.6189 238.823 55 232.003 55 226L54 226L54 237L42.9884 224.996L41 214z"/>
<path style="fill:#fefcf3; stroke:none;" d="M42 214C42 224.993 44.7199 230.522 54 237C54.0004 233.818 53.089 222.67 58.8997 223.631C66.1463 224.83 62.0434 238.37 60 242L80 243C81.3855 248.819 79.9538 254.531 87 256L87 220L84 220L84 214L42 214M86 214L89 222L185 222L188 214L86 214z"/>
<path style="fill:#f7dca7; stroke:none;" d="M189 214L187 219L187 220C190.331 219.286 190.591 216.762 189 214z"/>
<path style="fill:#fefcf3; stroke:none;" d="M190 214L190 220L187 220L187 255L193.508 243.858L213 241C202.818 231.672 216.325 214.538 217.895 229.995C218.096 231.977 217.999 234.011 218 236C227.988 231.342 230 224.079 230 214L190 214z"/>
<path style="fill:#f7dca7; stroke:none;" d="M230 214C230 224.692 225.902 227.621 220 236C228.672 231.956 233.918 223.338 230 214M240 214L241 215L240 214M31 215L32 216L31 215M84 215C84.0642 217.993 83.9461 219.346 87 220L87 219L84 215z"/>
<path style="fill:#eaba6b; stroke:none;" d="M239 215L237 218L239 215z"/>
<path style="fill:#f7dca7; stroke:none;" d="M32 216L33 217L32 216M239 216L240 217L239 216M33 217L34 218L33 217M86 217L87 218L86 217M187 217L188 218L187 217M238 217L239 218L238 217z"/>
<path style="fill:#eaba6b; stroke:none;" d="M34 218L36 220L34 218z"/>
<path style="fill:#f7dca7; stroke:none;" d="M88 218L88 222L89 222L88 218M185 218L186 219L185 218M237 218L238 219L237 218M34 219L35 220L34 219M236 219L237 220L236 219M241 220L242 221L241 220M36 221L37 222L36 221M213 221L214 222L213 221M235 221L236 222L235 221M37 222L38 223L37 222M55 225L62 225C59.3043 222.355 57.6957 222.355 55 225M66 225L70 223L66 225M186 222C186 230.036 189.673 250.739 185 257L185 258L193 255L192 247L191 247C190.873 250.902 190.401 252.915 187 255L186 222M200 222L201 223L200 222z"/>
<path style="fill:#eaba6b; stroke:none;" d="M200 223L200 224L205 227C205.775 223.324 203.22 222.527 200 223z"/>
<path style="fill:#f7dca7; stroke:none;" d="M204 222L205 223L204 222M211 222L210 224L211 222z"/>
<path style="fill:#eaba6b; stroke:none;" d="M212 222L210 226L211 226L212 222z"/>
<path style="fill:#fda51e; stroke:none;" d="M213 222C209.408 227.442 207.289 237.321 216 238C216 232.439 217.229 226.141 213 222z"/>
<path style="fill:#eaba6b; stroke:none;" d="M214 222L216 224L214 222z"/>
<path style="fill:#f7dca7; stroke:none;" d="M215 222L216 223L215 222M234 222L235 223L234 222M38 223L39 224L38 223z"/>
<path style="fill:#eaba6b; stroke:none;" d="M55 229L56 229C57.1091 225.429 58.9445 224.515 61 228C62.2287 222.163 55.8297 223.802 55 229M66 228L67 228L71 226C71.7637 221.401 66.7245 225.045 66 228z"/>
<path style="fill:#f7dca7; stroke:none;" d="M71 223L72 224L71 223M88 241L93 236L89 239L89 224L116 224C111.68 222.187 92.1896 220.611 89.0278 224.603C86.3277 228.012 88 236.833 88 241M118 223L118 224L156 225L145 223L118 223M157 223L157 241L158 241L158 224L185 224L157 223z"/>
<path style="fill:#fda51e; stroke:none;" d="M200 238C213.405 236.956 200.039 213.521 200 231.995L200 238z"/>
<path style="fill:#f7dca7; stroke:none;" d="M205 223L206 224L205 223M233 223L234 224L233 223M39 224L40 225L39 224z"/>
<path style="fill:#fda51e; stroke:none;" d="M60 240C60.6136 237.981 60.9908 236.097 61.2677 233.995C63.743 215.219 46.7962 235.174 60 240M66 239L72 239L71 224C64.6842 226.046 66 233.489 66 239z"/>
<path style="fill:#fefcf3; stroke:none;" d="M89 224L89 239C99.5298 232.668 105.47 232.668 116 239L116 224L89 224M118 224L118 235L119 235C123.619 228.991 128.49 226.016 136 225L118 224M137 224L137 225L156 233L156 225L137 224M158 224L158 238C168.405 233.192 173.714 231.444 184 238L185 224L158 224z"/>
<path style="fill:#f7dca7; stroke:none;" d="M199 224L200 225L199 224M216 224L217 225L216 224M232 224L233 225L232 224M72.3333 225.667L72.6667 226.333L72.3333 225.667M132.667 225.333L133.333 225.667L132.667 225.333z"/>
<path style="fill:#eaba6b; stroke:none;" d="M134 225L134 226L140 226L134 225z"/>
<path style="fill:#f7dca7; stroke:none;" d="M140 225L140 226L143 226L140 225z"/>
<path style="fill:#eaba6b; stroke:none;" d="M199 225L199 239L206 237L200 238L199 225M216 225L216 238L210 237L217 239L216 225z"/>
<path style="fill:#f7dca7; stroke:none;" d="M128 226L129 227L128 226z"/>
<path style="fill:#eaba6b; stroke:none;" d="M127 227L120 239L121 239L131 229L132 227L127 227z"/>
<path style="fill:#fda51e; stroke:none;" d="M130 227L130 228L144 228C140.007 224.975 134.664 225.89 130 227z"/>
<path style="fill:#eaba6b; stroke:none;" d="M143 226L142 228L142 229L152 234L149 228L148 228L149 230L148 230L147 227L143 226z"/>
<path style="fill:#f7dca7; stroke:none;" d="M145.667 226.333L146.333 226.667L145.667 226.333M155.333 226.667L155.667 227.333L155.333 226.667M198 226L198 238L199 238L198 226M209 226L209 239L210 239L209 226M217 226L217 239L220 237L217 226M65 227L65 240L66 240L65 227z"/>
<path style="fill:#eaba6b; stroke:none;" d="M72 227L72 239L66 239L66 240L73 240L72 227z"/>
<path style="fill:#f7dca7; stroke:none;" d="M126 227L127 228L126 227z"/>
<path style="fill:#eaba6b; stroke:none;" d="M135 227L135 228L139 228L135 227z"/>
<path style="fill:#f7dca7; stroke:none;" d="M147 227L148 228L147 227M206 227L206 239L207 239L206 227M62 228L62 237L63 237L62 228M124 228L120 233L124 228z"/>
<path style="fill:#eaba6b; stroke:none;" d="M125 228L120 234L125 228z"/>
<path style="fill:#fda51e; stroke:none;" d="M115 241L116 265L119 265C119 249.544 119.006 240.82 128 228L115 241z"/>
<path style="fill:#f7dca7; stroke:none;" d="M129 229L129 230L135 229L129 229z"/>
<path style="fill:#fefcf3; stroke:none;" d="M124 265C124 257.823 121.866 246.517 125.179 240.005C129.509 231.494 143.747 230.323 148.543 239.094C152.211 245.801 150 257.54 150 265L154 265C154 258.668 154.082 252.331 153.996 246C153.798 231.353 137.102 222.16 125.214 232.558C119.845 237.254 120 244.491 120 251C120 255.988 118.328 263.117 124 265z"/>
<path style="fill:#f7dca7; stroke:none;" d="M140.667 228.333L141.333 228.667L140.667 228.333z"/>
<path style="fill:#fda51e; stroke:none;" d="M146 228L149 230L146 228z"/>
<path style="fill:#f7dca7; stroke:none;" d="M149 228L150 229L149 228M73 229L73 239L74 239L73 229M143.667 229.333L144.333 229.667L143.667 229.333M150 229L151 230L150 229M127 230L128 231L127 230M146 230L147 231L146 230z"/>
<path style="fill:#fda51e; stroke:none;" d="M149 230L156 265L157 265L159 241L149 230z"/>
<path style="fill:#f7dca7; stroke:none;" d="M155 230L156 231L155 230M126 231L127 232L126 231M148 231L149 232L148 231z"/>
<path style="fill:#eaba6b; stroke:none;" d="M61 232L60 240L61 232z"/>
<path style="fill:#f7dca7; stroke:none;" d="M149 232L150 233L149 232M100 233L100 234L105 234L100 233M132 233L132 234L135 234L132 233z"/>
<path style="fill:#eaba6b; stroke:none;" d="M135 233L135 234L140 234L135 233z"/>
<path style="fill:#f7dca7; stroke:none;" d="M140.667 233.333L141.333 233.667L140.667 233.333M150 233L151 234L150 233M154 233L156 235L156 233L154 233M166.667 233.333L167.333 233.667L166.667 233.333M175.667 233.333L176.333 233.667L175.667 233.333z"/>
<path style="fill:#eaba6b; stroke:none;" d="M55 234L56 235L55 234z"/>
<path style="fill:#f7dca7; stroke:none;" d="M96 234L97 235L96 234M108 234L109 235L108 234M119 234L120 235L119 234M128 236L131 235L128 236z"/>
<path style="fill:#eaba6b; stroke:none;" d="M131 234L132 235L131 234z"/>
<path style="fill:#fda51e; stroke:none;" d="M126 266C131.132 266 143.259 268.249 147.397 264.972C149.918 262.975 149 257.803 149 255C149 249.781 150.183 242.732 146.991 238.214C143.049 232.635 131.061 232.072 127.318 238.214C123.347 244.73 126 258.53 126 266z"/>
<path style="fill:#eaba6b; stroke:none;" d="M142 234L142 235L145 236L142 234z"/>
<path style="fill:#f7dca7; stroke:none;" d="M144 234L145 235L144 234M151 234L152 235L151 234M163 234L164 235L163 234M178.667 234.333L179.333 234.667L178.667 234.333M94 235L95 236L94 235M110 235L111 236L110 235M116 235L117 236L116 235M118 235L119 236L118 235M122 235L123 236L122 235z"/>
<path style="fill:#eaba6b; stroke:none;" d="M129 235L130 236L129 235z"/>
<path style="fill:#f7dca7; stroke:none;" d="M145 235L146 236L145 235z"/>
<path style="fill:#eaba6b; stroke:none;" d="M152 235L153 236L152 235z"/>
<path style="fill:#f7dca7; stroke:none;" d="M162 235L163 236L162 235M167 235L167 236L175 236L167 235M180 235L181 236L180 235M97.6667 236.333L98.3333 236.667L97.6667 236.333z"/>
<path style="fill:#fefcf3; stroke:none;" d="M90 258L93 258C93 253.574 92.2117 248.108 94.3179 244.044C97.6071 237.698 106.212 237.264 110.258 243.108C113.839 248.281 112 257.984 112 264L115 264C115 256.809 116.833 246.309 112.121 240.225C107.074 233.707 95.771 235.178 91.9198 242.044C89.234 246.832 90 252.714 90 258z"/>
<path style="fill:#f7dca7; stroke:none;" d="M106.667 236.333L107.333 236.667L106.667 236.333M112 236L113 237L112 236z"/>
<path style="fill:#eaba6b; stroke:none;" d="M127 236L126 239L127 236M146 236L148 241L149 241L146 236z"/>
<path style="fill:#f7dca7; stroke:none;" d="M147 236L148 237L147 236M152 236L153 240L154 240L152 236M160 236L161 237L160 236M163 238L166 237L163 238z"/>
<path style="fill:#fefcf3; stroke:none;" d="M159 264L162 264C162 257.91 160.249 248.551 163.318 243.094C167.267 236.073 176.369 237.231 179.821 244.005C181.878 248.041 181 253.605 181 258C196.907 246.528 163.827 221.891 159.34 245.001C158.168 251.04 159 257.862 159 264z"/>
<path style="fill:#f7dca7; stroke:none;" d="M177 236L178 237L177 236M95 237L96 238L95 237M109 237L110 238L109 237M113 237L114 238L113 237M121 237L122 238L121 237M126 237L127 238L126 237z"/>
<path style="fill:#eaba6b; stroke:none;" d="M153 237L154 238L153 237z"/>
<path style="fill:#f7dca7; stroke:none;" d="M179 237L180 238L179 237M182 237L183 238L182 237M184 237L184 240L185 240L184 237z"/>
<path style="fill:#eaba6b; stroke:none;" d="M55 238L56 239L55 238z"/>
<path style="fill:#f7dca7; stroke:none;" d="M62 238L63 239L62 238M101 238L101 239L104 239L101 238M114 238L115 239L114 238M125 238L124 265L120 264L127 268L125 238M148 238L149 239L148 238M166 240L169 239L166 240z"/>
<path style="fill:#eaba6b; stroke:none;" d="M169 238L169 239L176 240L169 238z"/>
<path style="fill:#f7dca7; stroke:none;" d="M174.667 238.333L175.333 238.667L174.667 238.333M180 238L181 239L180 238z"/>
<path style="fill:#eaba6b; stroke:none;" d="M56.6667 239.333L57.3333 239.667L56.6667 239.333z"/>
<path style="fill:#f7dca7; stroke:none;" d="M93 239L94 240L93 239M98.6667 239.333L99.3333 239.667L98.6667 239.333z"/>
<path style="fill:#eaba6b; stroke:none;" d="M100 239L100 240L106 240L100 239z"/>
<path style="fill:#f7dca7; stroke:none;" d="M106 239L107 240L106 239M115 239L116 240L115 239M120.333 239.667L120.667 240.333L120.333 239.667z"/>
<path style="fill:#eaba6b; stroke:none;" d="M154 239C154 245.32 151.126 261.741 156 266L154 239z"/>
<path style="fill:#f7dca7; stroke:none;" d="M161 239L162 240L161 239z"/>
<path style="fill:#eaba6b; stroke:none;" d="M167 239L168 240L167 239z"/>
<path style="fill:#fda51e; stroke:none;" d="M163 263C166.462 262.724 169.687 262.061 172.999 260.999C195.302 253.846 163.783 224.209 163.015 250C162.887 254.326 163 258.672 163 263z"/>
<path style="fill:#f7dca7; stroke:none;" d="M176 239L177 240L176 239M181 239L182 240L181 239M200 239L200 240L206 240L200 239M210 239L210 240L213 241L208 246L217 240L210 239z"/>
<path style="fill:#fda51e; stroke:none;" d="M90.3333 240.667L90.6667 241.333L90.3333 240.667z"/>
<path style="fill:#f7dca7; stroke:none;" d="M92 240L93 241L92 240M96 240L94 244L95 244L96 240z"/>
<path style="fill:#eaba6b; stroke:none;" d="M97 240L95 243L97 240z"/>
<path style="fill:#fda51e; stroke:none;" d="M111 264C111 258.34 112.752 249.133 109.972 244.059C102.656 230.7 86.8067 250.273 95.6034 259.181C98.9885 262.609 106.479 263.067 111 264z"/>
<path style="fill:#eaba6b; stroke:none;" d="M107 240L111 244L107 240z"/>
<path style="fill:#f7dca7; stroke:none;" d="M108 240L109 241L108 240M112 240L113 241L112 240z"/>
<path style="fill:#eaba6b; stroke:none;" d="M125 240L125 266L126 266L125 240z"/>
<path style="fill:#f7dca7; stroke:none;" d="M149.333 240.667L149.667 241.333L149.333 240.667M160 240L161 241L160 240M164 240L165 241L164 240z"/>
<path style="fill:#eaba6b; stroke:none;" d="M165 240L166 241L165 240M177 240L178 241L177 240z"/>
<path style="fill:#fda51e; stroke:none;" d="M183 240L184 241L183 240z"/>
<path style="fill:#f7dca7; stroke:none;" d="M91.3333 241.667L91.6667 242.333L91.3333 241.667M109 241L110 242L109 241M113 241L114 242L113 241z"/>
<path style="fill:#eaba6b; stroke:none;" d="M164 241L162 264L166 264L166 263L163 263L164 241M178 241L179 242L178 241z"/>
<path style="fill:#f7dca7; stroke:none;" d="M182 241L183 242L182 241z"/>
<path style="fill:#fda51e; stroke:none;" d="M184 241L185 249L186 249L186 241L184 241M88 242L88 248L89 248L90 242L88 242z"/>
<path style="fill:#f7dca7; stroke:none;" d="M110 242L111 243L110 242z"/>
<path style="fill:#eaba6b; stroke:none;" d="M119 242L119 265L115 264L115 265L120 266L119 242M149 242L148 266C152.036 262.473 151.003 246.773 149 242z"/>
<path style="fill:#f7dca7; stroke:none;" d="M159.333 242.667L159.667 243.333L159.333 242.667M163 242L164 243L163 242z"/>
<path style="fill:#eaba6b; stroke:none;" d="M179.333 242.667L179.667 243.333L179.333 242.667z"/>
<path style="fill:#f7dca7; stroke:none;" d="M218 242L219 243L218 242M67 243L67 244L70 244L67 243M74 243L75 244L74 243M76 243L77 244L76 243M78.6667 243.333L79.3333 243.667L78.6667 243.333M90.3333 243.667L90.6667 244.333L90.3333 243.667M114 243L114 246L115 246L114 243z"/>
<path style="fill:#eaba6b; stroke:none;" d="M158 243L158 246L159 246L158 243z"/>
<path style="fill:#f7dca7; stroke:none;" d="M162.333 243.667L162.667 244.333L162.333 243.667M183.333 243.667L183.667 244.333L183.333 243.667M192 243L192 244L195 244L192 243z"/>
<path style="fill:#eaba6b; stroke:none;" d="M192 244L192 254L195 253L194 245L210 243L192 244z"/>
<path style="fill:#f7dca7; stroke:none;" d="M196 243L197 244L196 243M198 243L199 244L198 243M201 243L201 244L204 244L201 243M205.667 243.333L206.333 243.667L205.667 243.333z"/>
<path style="fill:#eaba6b; stroke:none;" d="M63 244L63 245L79 246L78 254C82.1933 253.101 80.7567 247.685 81 244L63 244M94 244L95 245L94 244z"/>
<path style="fill:#f7dca7; stroke:none;" d="M111 244L112 245L111 244z"/>
<path style="fill:#eaba6b; stroke:none;" d="M115 244L115 247L116 247L115 244z"/>
<path style="fill:#f7dca7; stroke:none;" d="M180.333 244.667L180.667 245.333L180.333 244.667z"/>
<path style="fill:#eaba6b; stroke:none;" d="M184 244L184 258L187 257L184 244z"/>
<path style="fill:#fda51e; stroke:none;" d="M193 244L194 245L193 244z"/>
<path style="fill:#f7dca7; stroke:none;" d="M93 245L93 248L94 248L93 245z"/>
<path style="fill:#eaba6b; stroke:none;" d="M111 245L111 265L112 265L111 245z"/>
<path style="fill:#f7dca7; stroke:none;" d="M191 245L192 246L191 245M194 245L194 246L204 246L204 247L194 251L194 252C199.041 252.518 204.503 249.403 207 245L194 245M65 246L65 247L78 254L79 246L78 246L78 252L65 246z"/>
<path style="fill:#fefcf3; stroke:none;" d="M68 246L68 247L78 252L78 246L68 246z"/>
<path style="fill:#f7dca7; stroke:none;" d="M158 246L156 265L156 266L164 265L164 264L159 264L158 246z"/>
<path style="fill:#eaba6b; stroke:none;" d="M180 246L178 259L178 260C182.152 257.308 181.783 250.249 180 246z"/>
<path style="fill:#fda51e; stroke:none;" d="M192 246L193 247L192 246z"/>
<path style="fill:#fefcf3; stroke:none;" d="M194 246L194 251L204 247L194 246z"/>
<path style="fill:#f7dca7; stroke:none;" d="M80 247L81 248L80 247M115 247L115 264L116 264L115 247z"/>
<path style="fill:#eaba6b; stroke:none;" d="M93 248C93 255.113 92.054 260.067 100 262L100 261C93.0122 258.166 95.4149 253.755 93 248z"/>
<path style="fill:#f7dca7; stroke:none;" d="M80 249L81 250L80 249z"/>
<path style="fill:#fda51e; stroke:none;" d="M185 250L186 251L185 250z"/>
<path style="fill:#f7dca7; stroke:none;" d="M65 251L66 252L65 251z"/>
<path style="fill:#fda51e; stroke:none;" d="M79 252L80 253L79 252M88 252L89 253L88 252M185.333 252.667L185.667 253.333L185.333 252.667M193 252L194 253L193 252z"/>
<path style="fill:#f7dca7; stroke:none;" d="M194 253L195 254L194 253M79 254L79 255L84 256L84 255L79 254z"/>
<path style="fill:#fda51e; stroke:none;" d="M88 254L88 257L89 257L88 254z"/>
<path style="fill:#f7dca7; stroke:none;" d="M84 256L87 258L84 256M181 259L184 257L181 259M88 258L88 259L93 260L88 258M81 259L82 260L81 259M180 259L181 260L180 259M94 260L95 261L94 260z"/>
<path style="fill:#eaba6b; stroke:none;" d="M172 261L172 262L176 261L172 261z"/>
<path style="fill:#f7dca7; stroke:none;" d="M176.667 260.333L177.333 260.667L176.667 260.333M96.6667 261.333L97.3333 261.667L96.6667 261.333M173 261L173 262L176 262L173 261M185 261L186 262L185 261M100.667 262.333L101.333 262.667L100.667 262.333z"/>
<path style="fill:#eaba6b; stroke:none;" d="M102 262L102 263L105 263L102 262M167 262L167 263L170 263L167 262z"/>
<path style="fill:#f7dca7; stroke:none;" d="M170.667 262.333L171.333 262.667L170.667 262.333M90.6667 263.333L91.3333 263.667L90.6667 263.333M103 263L103 264L106 264L103 263z"/>
<path style="fill:#eaba6b; stroke:none;" d="M106 263L106 264L109 264L106 263z"/>
<path style="fill:#f7dca7; stroke:none;" d="M166 263L166 264L169 264L166 263M180 263L181 264L180 263M93 264L94 265L93 264M108 264L108 265L111 265L108 264M112 264L112 265L116 266L112 264z"/>
<path style="fill:#eaba6b; stroke:none;" d="M157 264L158 265L157 264z"/>
<path style="fill:#f7dca7; stroke:none;" d="M147 266L147 267L154 266L147 266M100 266L101 267L100 266z"/>
<path style="fill:#eaba6b; stroke:none;" d="M126 266L126 267L147 267L126 266z"/>
<path style="fill:#f7dca7; stroke:none;" d="M171 266L172 267L171 266M104 267L105 268L104 267M128 267L128 268L144 268L128 267M167 267L168 268L167 267M107 268L107 269L110 269L107 268M162.667 268.333L163.333 268.667L162.667 268.333M113 269L113 270L116 270L113 269M156.667 269.333L157.333 269.667L156.667 269.333M120 270L120 271L125 271L120 270M147 270L147 271L152 271L147 270M129 271L129 272L142 272L129 271z"/>
</svg>
